<?xml version="1.0" encoding="UTF-8"?>
<!DOCTYPE svg PUBLIC "-//W3C//DTD SVG 1.1//EN" "http://www.w3.org/Graphics/SVG/1.1/DTD/svg11.dtd">
<svg xmlns="http://www.w3.org/2000/svg" version="1.1" width="1280px" height="173px" style="shape-rendering:geometricPrecision; text-rendering:geometricPrecision; image-rendering:optimizeQuality; fill-rule:evenodd; clip-rule:evenodd" xmlns:xlink="http://www.w3.org/1999/xlink">
<g><path style="opacity:0.98" fill="#f34235" d="M 28.5,-0.5 C 66.1667,-0.5 103.833,-0.5 141.5,-0.5C 150.025,4.57084 152.525,11.9042 149,21.5C 148.226,23.9393 146.726,25.7727 144.5,27C 113.889,28.1443 83.2221,28.9777 52.5,29.5C 53.4711,38.112 53.8044,46.7786 53.5,55.5C 82.8352,55.3334 112.169,55.5 141.5,56C 146.667,57.1667 149.833,60.3333 151,65.5C 151.667,97.1667 151.667,128.833 151,160.5C 149.794,167.372 145.627,170.872 138.5,171C 108.833,171.667 79.1667,171.667 49.5,171C 43.7304,171.371 39.8971,168.871 38,163.5C 37.0343,157.349 37.5343,151.349 39.5,145.5C 41.0284,144.139 42.6951,142.972 44.5,142C 69.8311,141.5 95.1645,141.333 120.5,141.5C 120.5,132.167 120.5,122.833 120.5,113.5C 90.4981,113.667 60.4981,113.5 30.5,113C 26.2297,111.73 23.7297,108.896 23,104.5C 22.3333,71.8333 22.3333,39.1667 23,6.5C 24.371,3.7339 26.2043,1.40057 28.5,-0.5 Z"/></g>
<g><path style="opacity:0.984" fill="#f34235" d="M 174.5,-0.5 C 214.167,-0.5 253.833,-0.5 293.5,-0.5C 300.957,8.07025 301.29,16.9036 294.5,26C 292.913,26.8624 291.246,27.5291 289.5,28C 276.504,28.4999 263.504,28.6666 250.5,28.5C 250.667,71.5013 250.5,114.501 250,157.5C 249.393,164.106 245.893,168.273 239.5,170C 233.606,171.037 227.939,170.371 222.5,168C 220.513,166.681 219.346,164.848 219,162.5C 218.5,127.168 218.333,91.8349 218.5,56.5C 205.496,56.6666 192.496,56.4999 179.5,56C 175.336,55.177 172.169,53.0103 170,49.5C 169.333,34.8333 169.333,20.1667 170,5.5C 171.332,3.34004 172.832,1.34004 174.5,-0.5 Z"/></g>
<g><path style="opacity:0.985" fill="#f34235" d="M 327.5,-0.5 C 354.5,-0.5 381.5,-0.5 408.5,-0.5C 412.877,1.38754 415.711,4.72087 417,9.5C 417.5,29.8306 417.667,50.1639 417.5,70.5C 425.174,70.3336 432.841,70.5003 440.5,71C 443.333,72.5 445.5,74.6667 447,77.5C 448.613,95.7809 448.947,114.114 448,132.5C 447.667,142.5 447.333,152.5 447,162.5C 445.73,166.77 442.896,169.27 438.5,170C 401.5,170.667 364.5,170.667 327.5,170C 323.104,169.27 320.27,166.77 319,162.5C 318.333,110.833 318.333,59.1667 319,7.5C 320.73,3.56987 323.564,0.903202 327.5,-0.5 Z M 349.5,29.5 C 362.5,29.5 375.5,29.5 388.5,29.5C 388.5,42.8333 388.5,56.1667 388.5,69.5C 375.5,69.5 362.5,69.5 349.5,69.5C 349.5,56.1667 349.5,42.8333 349.5,29.5 Z M 377.5,99.5 C 390.754,100.481 404.087,100.814 417.5,100.5C 417.5,113.833 417.5,127.167 417.5,140.5C 404.167,140.5 390.833,140.5 377.5,140.5C 377.5,126.833 377.5,113.167 377.5,99.5 Z"/></g>
<g><path style="opacity:0.816" fill="#000000" d="M 484.5,-0.5 C 490.833,-0.5 497.167,-0.5 503.5,-0.5C 507.001,1.86212 507.335,4.69545 504.5,8C 500.703,8.58991 497.036,8.08991 493.5,6.5C 487.925,8.36733 487.259,11.2007 491.5,15C 497.089,16.4613 502.089,18.9613 506.5,22.5C 511.076,36.0169 506.243,43.0169 492,43.5C 488.41,43.5284 484.91,43.0284 481.5,42C 477.514,40.0569 476.847,37.3902 479.5,34C 483.841,33.2302 488.008,33.7302 492,35.5C 497.059,34.4603 498.559,31.6269 496.5,27C 492.167,25.3333 487.833,23.6667 483.5,22C 475.791,14.184 476.124,6.68396 484.5,-0.5 Z"/></g>
<g><path style="opacity:0.853" fill="#000000" d="M 684.5,-0.5 C 687.5,-0.5 690.5,-0.5 693.5,-0.5C 694.095,13.6086 694.929,27.6086 696,41.5C 689.081,42.5288 681.915,43.0288 674.5,43C 669.005,39.378 666.672,34.2114 667.5,27.5C 666.749,15.2491 672.416,9.9158 684.5,11.5C 684.5,7.5 684.5,3.5 684.5,-0.5 Z M 678.5,19.5 C 680.5,19.5 682.5,19.5 684.5,19.5C 684.827,24.544 684.494,29.544 683.5,34.5C 681.261,36.1205 679.427,35.7871 678,33.5C 677.283,28.7804 677.45,24.1138 678.5,19.5 Z"/></g>
<g><path style="opacity:0.765" fill="#000000" d="M 860.5,-0.5 C 863.833,-0.5 867.167,-0.5 870.5,-0.5C 870.333,11.8378 870.5,24.1712 871,36.5C 873.874,41.3953 872.541,43.7287 867,43.5C 862.04,43.8733 859.706,41.54 860,36.5C 859.207,24.1211 859.373,11.7877 860.5,-0.5 Z"/></g>
<g><path style="opacity:0.826" fill="#000000" d="M 580.5,10.5 C 584.846,10.3343 589.179,10.501 593.5,11C 597,11.8333 599.167,14 600,17.5C 600.333,23.5 600.667,29.5 601,35.5C 604.505,37.2599 605.005,39.4266 602.5,42C 599.571,42.7772 596.737,42.6105 594,41.5C 591.243,43.0267 588.243,43.6934 585,43.5C 573.825,42.8456 570.491,37.1789 575,26.5C 579.773,23.8024 584.939,22.8024 590.5,23.5C 590.703,21.6096 590.037,20.1096 588.5,19C 585.821,18.5658 583.154,18.7325 580.5,19.5C 576.5,19.3371 575,17.3371 576,13.5C 577.409,12.2189 578.909,11.2189 580.5,10.5 Z M 584.5,30.5 C 586.5,30.5 588.5,30.5 590.5,30.5C 591.167,33.8332 589.833,35.8332 586.5,36.5C 583.61,35.1627 582.943,33.1627 584.5,30.5 Z"/></g>
<g><path style="opacity:0.798" fill="#000000" d="M 764.5,10.5 C 767.711,10.012 770.544,10.6787 773,12.5C 773.333,19.5 773.667,26.5 774,33.5C 775.427,35.7871 777.261,36.1205 779.5,34.5C 780.331,26.8549 780.831,19.1883 781,11.5C 784,10.1667 787,10.1667 790,11.5C 790.333,19.5 790.667,27.5 791,35.5C 792.741,37.5412 792.908,39.7079 791.5,42C 784.413,43.0828 777.079,43.4161 769.5,43C 767.714,42.2155 766.214,41.0488 765,39.5C 761.989,29.8378 761.822,20.1711 764.5,10.5 Z"/></g>
<g><path style="opacity:0.794" fill="#000000" d="M 939.5,10.5 C 942.711,10.012 945.544,10.6787 948,12.5C 948.333,19.5 948.667,26.5 949,33.5C 950.427,35.7871 952.261,36.1205 954.5,34.5C 955.331,26.8549 955.831,19.1883 956,11.5C 959,10.1667 962,10.1667 965,11.5C 965.333,19.5 965.667,27.5 966,35.5C 967.741,37.5412 967.908,39.7079 966.5,42C 959.413,43.0828 952.079,43.4161 944.5,43C 942.714,42.2155 941.214,41.0488 940,39.5C 938.137,34.0115 937.304,28.3449 937.5,22.5C 937.282,18.2784 937.949,14.2784 939.5,10.5 Z"/></g>
<g><path style="opacity:0.796" fill="#000000" d="M 1044.5,10.5 C 1047.58,10.2601 1050.58,10.5934 1053.5,11.5C 1054.64,13.4213 1054.81,15.4213 1054,17.5C 1051.2,18.2113 1048.37,18.878 1045.5,19.5C 1044.8,27.1931 1044.14,34.8598 1043.5,42.5C 1040.89,43.6517 1038.23,43.8184 1035.5,43C 1034.87,33.0488 1034.04,23.2155 1033,13.5C 1035.55,11.2711 1038.39,10.9377 1041.5,12.5C 1042.74,12.0576 1043.74,11.3909 1044.5,10.5 Z"/></g>
<g><path style="opacity:0.823" fill="#000000" d="M 1125.5,10.5 C 1130.18,10.3342 1134.85,10.5008 1139.5,11C 1142.38,12.2506 1144.21,14.4173 1145,17.5C 1145.33,23.5 1145.67,29.5 1146,35.5C 1150.92,39.3389 1150.25,41.6722 1144,42.5C 1142.24,42.4555 1140.57,42.1222 1139,41.5C 1136.24,43.0267 1133.24,43.6934 1130,43.5C 1118.82,42.8456 1115.49,37.1789 1120,26.5C 1124.77,23.8024 1129.94,22.8024 1135.5,23.5C 1135.7,21.6096 1135.04,20.1096 1133.5,19C 1130.82,18.5658 1128.15,18.7325 1125.5,19.5C 1121.5,19.3371 1120,17.3371 1121,13.5C 1122.41,12.2189 1123.91,11.2189 1125.5,10.5 Z M 1129.5,30.5 C 1131.5,30.5 1133.5,30.5 1135.5,30.5C 1136.17,33.8332 1134.83,35.8332 1131.5,36.5C 1128.61,35.1627 1127.94,33.1627 1129.5,30.5 Z"/></g>
<g><path style="opacity:0.81" fill="#000000" d="M 1217.5,10.5 C 1219.17,10.7512 1220.67,11.4178 1222,12.5C 1226.61,10.4896 1231.44,9.98956 1236.5,11C 1239.38,12.2506 1241.21,14.4173 1242,17.5C 1242.81,25.7457 1242.65,33.9124 1241.5,42C 1238.57,42.7772 1235.74,42.6105 1233,41.5C 1232.67,34.5 1232.33,27.5 1232,20.5C 1230.27,18.3985 1228.27,18.0652 1226,19.5C 1225.8,26.8826 1225.3,34.2159 1224.5,41.5C 1221.63,42.7825 1218.79,42.7825 1216,41.5C 1215.67,33.8333 1215.33,26.1667 1215,18.5C 1212.74,14.7911 1213.57,12.1244 1217.5,10.5 Z"/></g>
<g><path style="opacity:0.81" fill="#000000" d="M 479.5,60.5 C 488.839,60.3335 498.173,60.5002 507.5,61C 510.167,63.3333 510.167,65.6667 507.5,68C 504.518,68.498 501.518,68.6646 498.5,68.5C 498.667,80.1714 498.5,91.8381 498,103.5C 495.503,105.478 492.669,105.978 489.5,105C 488.874,104.25 488.374,103.416 488,102.5C 487.5,91.1716 487.333,79.8382 487.5,68.5C 484.482,68.6646 481.482,68.498 478.5,68C 476.315,65.3221 476.649,62.8221 479.5,60.5 Z"/></g>
<g><path style="opacity:0.826" fill="#000000" d="M 574.5,72.5 C 578.846,72.3343 583.179,72.501 587.5,73C 591,73.8333 593.167,76 594,79.5C 594.333,85.5 594.667,91.5 595,97.5C 599.919,101.339 599.252,103.672 593,104.5C 591.236,104.456 589.569,104.122 588,103.5C 585.243,105.027 582.243,105.693 579,105.5C 567.825,104.846 564.491,99.1789 569,88.5C 573.773,85.8024 578.939,84.8024 584.5,85.5C 584.703,83.6096 584.037,82.1096 582.5,81C 579.821,80.5658 577.154,80.7325 574.5,81.5C 570.5,81.3371 569,79.3371 570,75.5C 571.409,74.2189 572.909,73.2189 574.5,72.5 Z M 578.5,92.5 C 580.5,92.5 582.5,92.5 584.5,92.5C 585.167,95.8332 583.833,97.8332 580.5,98.5C 577.61,97.1627 576.943,95.1627 578.5,92.5 Z"/></g>
<g><path style="opacity:0.851" fill="#000000" d="M 666.5,72.5 C 668.17,72.7512 669.67,73.4178 671,74.5C 686.21,69.3646 692.71,74.8646 690.5,91C 690.486,95.4147 690.152,99.748 689.5,104C 686.331,104.978 683.497,104.478 681,102.5C 680.667,95.8333 680.333,89.1667 680,82.5C 678.33,80.3017 676.33,79.9683 674,81.5C 673.667,88.8333 673.333,96.1667 673,103.5C 670.333,104.833 667.667,104.833 665,103.5C 664.667,95.8333 664.333,88.1667 664,80.5C 661.476,76.5633 662.309,73.8967 666.5,72.5 Z"/></g>
<g><path style="opacity:0.829" fill="#000000" d="M 768.5,72.5 C 781.772,69.775 787.772,75.1084 786.5,88.5C 787.974,101.359 782.307,106.692 769.5,104.5C 769.666,108.514 769.499,112.514 769,116.5C 766,117.833 763,117.833 760,116.5C 759.667,104.5 759.333,92.5 759,80.5C 757.08,74.0963 759.413,72.0963 766,74.5C 766.995,73.9341 767.828,73.2674 768.5,72.5 Z M 770.5,80.5 C 775.816,80.4177 777.816,83.0844 776.5,88.5C 777.832,94.5379 775.499,97.2046 769.5,96.5C 769.218,91.0735 769.551,85.7401 770.5,80.5 Z"/></g>
<g><path style="opacity:0.824" fill="#000000" d="M 859.5,72.5 C 864.179,72.3342 868.845,72.5008 873.5,73C 875.286,73.7845 876.786,74.9512 878,76.5C 879.219,83.4211 879.886,90.4211 880,97.5C 884.919,101.339 884.252,103.672 878,104.5C 876.236,104.456 874.569,104.122 873,103.5C 868.391,105.51 863.558,106.01 858.5,105C 854.244,103.246 852.244,100.08 852.5,95.5C 851.859,90.606 853.859,87.4394 858.5,86C 862.152,85.5014 865.818,85.3347 869.5,85.5C 869.703,83.6096 869.037,82.1096 867.5,81C 864.821,80.5658 862.154,80.7325 859.5,81.5C 855.5,81.3371 854,79.3371 855,75.5C 856.409,74.2189 857.909,73.2189 859.5,72.5 Z M 863.5,92.5 C 865.5,92.5 867.5,92.5 869.5,92.5C 870.167,95.8332 868.833,97.8332 865.5,98.5C 862.61,97.1627 861.943,95.1627 863.5,92.5 Z"/></g>
<g><path style="opacity:0.834" fill="#000000" d="M 482.5,122.5 C 489.175,122.334 495.842,122.5 502.5,123C 510.555,126.751 512.722,132.584 509,140.5C 508.097,141.701 506.931,142.535 505.5,143C 514.732,150.296 514.732,157.63 505.5,165C 497.333,166.755 489.167,166.922 481,165.5C 479.391,152.57 479.058,139.57 480,126.5C 480.662,125.016 481.496,123.683 482.5,122.5 Z M 490.5,130.5 C 493.066,130.344 495.566,130.678 498,131.5C 501.518,134.643 501.018,137.143 496.5,139C 494.527,139.495 492.527,139.662 490.5,139.5C 490.5,136.5 490.5,133.5 490.5,130.5 Z M 490.5,147.5 C 493.607,147.351 496.607,147.851 499.5,149C 502.167,151.667 502.167,154.333 499.5,157C 496.607,158.149 493.607,158.649 490.5,158.5C 490.5,154.833 490.5,151.167 490.5,147.5 Z"/></g>
<g><path style="opacity:0.842" fill="#000000" d="M 674.5,125.5 C 681.84,124.789 684.506,128.122 682.5,135.5C 686.585,134.659 689.585,135.992 691.5,139.5C 690.96,140.748 690.293,141.915 689.5,143C 687.19,143.497 684.857,143.663 682.5,143.5C 682.334,148.179 682.501,152.845 683,157.5C 685.461,158.218 687.961,158.885 690.5,159.5C 691.641,161.421 691.808,163.421 691,165.5C 686.921,166.629 682.755,166.796 678.5,166C 676.448,165.07 674.948,163.57 674,161.5C 672.483,150.544 672.15,139.544 673,128.5C 673.513,127.473 674.013,126.473 674.5,125.5 Z"/></g>
<g><path style="opacity:0.825" fill="#000000" d="M 583.5,134.5 C 587.846,134.334 592.179,134.501 596.5,135C 600,135.833 602.167,138 603,141.5C 603.333,147.5 603.667,153.5 604,159.5C 607.505,161.26 608.005,163.427 605.5,166C 602.571,166.777 599.737,166.61 597,165.5C 594.243,167.027 591.243,167.693 588,167.5C 576.825,166.846 573.491,161.179 578,150.5C 582.773,147.802 587.939,146.802 593.5,147.5C 593.703,145.61 593.037,144.11 591.5,143C 588.821,142.566 586.154,142.732 583.5,143.5C 579.5,143.337 578,141.337 579,137.5C 580.409,136.219 581.909,135.219 583.5,134.5 Z M 587.5,154.5 C 589.5,154.5 591.5,154.5 593.5,154.5C 594.167,157.833 592.833,159.833 589.5,160.5C 586.61,159.163 585.943,157.163 587.5,154.5 Z"/></g>
<g><path style="opacity:0.827" fill="#000000" d="M 763.5,134.5 C 768.179,134.334 772.845,134.501 777.5,135C 779.286,135.785 780.786,136.951 782,138.5C 783.219,145.421 783.886,152.421 784,159.5C 788.919,163.339 788.252,165.672 782,166.5C 780.236,166.456 778.569,166.122 777,165.5C 772.391,167.51 767.558,168.01 762.5,167C 758.215,165.104 756.215,161.771 756.5,157C 756.013,152.3 758.013,149.3 762.5,148C 766.152,147.501 769.818,147.335 773.5,147.5C 773.579,146.07 773.246,144.736 772.5,143.5C 769.541,142.487 766.541,142.487 763.5,143.5C 758.618,143.019 757.451,140.686 760,136.5C 761.302,135.915 762.469,135.249 763.5,134.5 Z M 767.5,154.5 C 769.5,154.5 771.5,154.5 773.5,154.5C 774.167,157.833 772.833,159.833 769.5,160.5C 766.61,159.163 765.943,157.163 767.5,154.5 Z"/></g>
<g><path style="opacity:0.796" fill="#000000" d="M 858.5,134.5 C 863.179,134.334 867.845,134.501 872.5,135C 876.745,136.908 877.412,139.575 874.5,143C 870.852,143.062 867.185,142.895 863.5,142.5C 863.281,143.675 863.614,144.675 864.5,145.5C 868.696,146.847 872.529,148.847 876,151.5C 879.615,162.551 875.615,167.884 864,167.5C 861.5,167.333 859,167.167 856.5,167C 852.205,165.155 851.538,162.488 854.5,159C 858.493,158.83 862.493,158.996 866.5,159.5C 866.67,158.178 866.337,157.011 865.5,156C 862.417,154.861 859.417,153.528 856.5,152C 850.855,145.404 851.521,139.571 858.5,134.5 Z"/></g>
</svg>
