<?xml version="1.0" encoding="UTF-8"?>
<!DOCTYPE svg PUBLIC "-//W3C//DTD SVG 1.1//EN" "http://www.w3.org/Graphics/SVG/1.1/DTD/svg11.dtd">
<svg xmlns="http://www.w3.org/2000/svg" version="1.1" width="1920px" height="260px" style="shape-rendering:geometricPrecision; text-rendering:geometricPrecision; image-rendering:optimizeQuality; fill-rule:evenodd; clip-rule:evenodd" xmlns:xlink="http://www.w3.org/1999/xlink">
<g><path style="opacity:0.963" fill="#fbfdf9" d="M -0.5,143.5 C -0.5,133.833 -0.5,124.167 -0.5,114.5C 10.2116,52.6214 46.545,16.1214 108.5,5C 162.859,0.762192 204.359,21.5955 233,67.5C 253.667,108.5 253.667,149.5 233,190.5C 204.348,236.41 162.848,257.243 108.5,253C 46.554,241.888 10.2207,205.388 -0.5,143.5 Z"/></g>
<g><path style="opacity:1" fill="#0e0803" d="M 149.5,28.5 C 150.833,30.5 152.5,32.1667 154.5,33.5C 154.973,34.9063 155.973,35.573 157.5,35.5C 160.82,46.0008 165.32,56.0008 171,65.5C 172.105,73.3634 173.605,81.0301 175.5,88.5C 175.795,95.5878 175.462,102.588 174.5,109.5C 173.662,109.842 173.328,110.508 173.5,111.5C 172.778,111.918 172.278,112.584 172,113.5C 171.617,112.944 171.117,112.611 170.5,112.5C 169.781,110.236 169.448,107.903 169.5,105.5C 169.59,102.848 168.924,100.515 167.5,98.5C 167.211,92.3282 165.544,86.6616 162.5,81.5C 162.634,79.7085 162.301,78.0418 161.5,76.5C 161.245,74.0326 160.245,72.0326 158.5,70.5C 154.205,61.5425 147.205,55.8759 137.5,53.5C 134.65,52.2023 131.65,51.0356 128.5,50C 122.106,49.5609 115.773,48.7276 109.5,47.5C 107.833,47.6667 106.167,47.8333 104.5,48C 102.242,48.876 100.242,50.0427 98.5,51.5C 90.349,54.2259 83.6824,58.8926 78.5,65.5C 76.5214,67.1675 74.188,67.8342 71.5,67.5C 71.5,66.5 71.5,65.5 71.5,64.5C 68.8127,64.3359 66.146,64.5026 63.5,65C 64.992,67.43 66.992,69.2633 69.5,70.5C 67.5405,71.5192 65.5405,71.5192 63.5,70.5C 60.0975,64.2968 59.7642,57.9634 62.5,51.5C 64.4707,49.1918 66.4707,46.8585 68.5,44.5C 70.1184,42.684 72.1184,41.3507 74.5,40.5C 75.4511,41.9187 75.7845,43.5853 75.5,45.5C 80.6178,44.8989 85.2845,43.0656 89.5,40C 95.5905,31.3387 103.591,28.5054 113.5,31.5C 119.743,29.9065 124.077,26.2399 126.5,20.5C 135.313,19.1064 142.979,21.773 149.5,28.5 Z"/></g>
<g><path style="opacity:1" fill="#2c1b0e" d="M 126.5,20.5 C 124.077,26.2399 119.743,29.9065 113.5,31.5C 103.591,28.5054 95.5905,31.3387 89.5,40C 85.2845,43.0656 80.6178,44.8989 75.5,45.5C 75.7845,43.5853 75.4511,41.9187 74.5,40.5C 75.1667,39.5 75.8333,38.5 76.5,37.5C 79.8087,33.174 84.142,30.3407 89.5,29C 93.1667,26 96.8333,23 100.5,20C 104.833,19.3333 109.167,19.3333 113.5,20C 117.7,21.7893 122.033,21.956 126.5,20.5 Z"/></g>
<g><path style="opacity:1" fill="#443a4a" d="M 157.5,35.5 C 163.377,37.7888 169.044,40.4554 174.5,43.5C 177.237,50.6377 180.237,57.6377 183.5,64.5C 183.244,66.7925 183.577,68.9592 184.5,71C 180.442,70.8329 177.109,72.1663 174.5,75C 175.578,75.6739 176.245,76.6739 176.5,78C 175.714,81.4582 175.38,84.9582 175.5,88.5C 173.605,81.0301 172.105,73.3634 171,65.5C 165.32,56.0008 160.82,46.0008 157.5,35.5 Z"/></g>
<g><path style="opacity:1" fill="#dadac0" d="M 76.5,37.5 C 75.8333,38.5 75.1667,39.5 74.5,40.5C 72.1184,41.3507 70.1184,42.684 68.5,44.5C 68.44,43.9569 68.1067,43.6236 67.5,43.5C 28.9243,72.5397 14.591,110.873 24.5,158.5C 12.594,109.464 27.2607,70.2974 68.5,41C 71.0711,39.5462 73.7378,38.3795 76.5,37.5 Z"/></g>
<g><path style="opacity:0.914" fill="#000000" d="M 291.5,82.5 C 300.839,82.3335 310.173,82.5002 319.5,83C 326.207,83.7904 332.374,85.957 338,89.5C 338.5,96.1583 338.666,102.825 338.5,109.5C 330.167,109.5 321.833,109.5 313.5,109.5C 313.625,106.107 311.958,104.774 308.5,105.5C 307.167,105.667 305.833,105.833 304.5,106C 303.167,107 303.167,108 304.5,109C 311.914,111.805 319.247,114.805 326.5,118C 338.553,126.152 342.719,137.318 339,151.5C 335.224,161.998 327.724,168.165 316.5,170C 300.809,171.728 285.476,170.228 270.5,165.5C 269.503,157.862 269.169,150.196 269.5,142.5C 278.167,142.5 286.833,142.5 295.5,142.5C 295.157,146.134 296.823,147.801 300.5,147.5C 304.687,148.149 306.187,146.482 305,142.5C 295.97,138.735 287.137,134.568 278.5,130C 269.581,122.517 266.415,113.017 269,101.5C 272.398,90.2654 279.898,83.9321 291.5,82.5 Z"/></g>
<g><path style="opacity:0.907" fill="#000000" d="M 371.5,82.5 C 382.306,81.8937 392.973,82.7271 403.5,85C 415.99,90.8409 423.157,100.674 425,114.5C 430.104,158.398 410.937,176.565 367.5,169C 352.465,163.95 343.965,153.45 342,137.5C 340.706,125.941 341.706,114.608 345,103.5C 350.47,92.1907 359.303,85.1907 371.5,82.5 Z M 380.5,103.5 C 384.49,102.616 387.323,103.949 389,107.5C 389.667,120.167 389.667,132.833 389,145.5C 387.309,149.213 384.475,150.379 380.5,149C 379.299,148.097 378.465,146.931 378,145.5C 377.333,132.833 377.333,120.167 378,107.5C 378.662,106.016 379.496,104.683 380.5,103.5 Z"/></g>
<g><path style="opacity:0.912" fill="#000000" d="M 929.5,110.5 C 932.237,102.116 934.904,93.6165 937.5,85C 951.163,84.5001 964.829,84.3334 978.5,84.5C 984.022,105.901 989.855,127.234 996,148.5C 997.011,149.337 998.178,149.67 999.5,149.5C 999.5,147.167 999.5,144.833 999.5,142.5C 1008.19,142.169 1016.86,142.502 1025.5,143.5C 1026.08,146.58 1027.91,147.914 1031,147.5C 1035.8,147.427 1036.97,145.593 1034.5,142C 1026.26,138.881 1018.26,135.214 1010.5,131C 999.4,122.807 995.9,111.974 1000,98.5C 1004.45,89.067 1011.95,83.9003 1022.5,83C 1031.83,82.3333 1041.17,82.3333 1050.5,83C 1057.21,83.7904 1063.37,85.957 1069,89.5C 1069.5,96.1583 1069.67,102.825 1069.5,109.5C 1060.83,109.5 1052.17,109.5 1043.5,109.5C 1043.76,106.266 1042.26,104.932 1039,105.5C 1035.55,104.939 1034.39,106.106 1035.5,109C 1042.91,111.805 1050.25,114.805 1057.5,118C 1070.46,127.189 1074.29,139.356 1069,154.5C 1064.69,163.424 1057.52,168.591 1047.5,170C 1038.17,170.667 1028.83,170.667 1019.5,170C 1013.29,169.324 1007.29,167.824 1001.5,165.5C 1000.61,166.325 1000.28,167.325 1000.5,168.5C 985.833,168.5 971.167,168.5 956.5,168.5C 956.5,162.167 956.5,155.833 956.5,149.5C 958.5,149.5 960.5,149.5 962.5,149.5C 962.326,147.139 961.993,144.806 961.5,142.5C 957.5,142.5 953.5,142.5 949.5,142.5C 949.007,144.806 948.674,147.139 948.5,149.5C 950.5,149.5 952.5,149.5 954.5,149.5C 954.5,155.833 954.5,162.167 954.5,168.5C 941.167,168.5 927.833,168.5 914.5,168.5C 914.5,162.167 914.5,155.833 914.5,149.5C 916.167,149.5 917.833,149.5 919.5,149.5C 922.991,136.536 926.324,123.536 929.5,110.5 Z M 954.5,116.5 C 955.649,116.791 956.316,117.624 956.5,119C 957.362,122.811 958.029,126.644 958.5,130.5C 956.5,130.5 954.5,130.5 952.5,130.5C 953.296,125.853 953.963,121.186 954.5,116.5 Z"/></g>
<g><path style="opacity:0.913" fill="#000000" d="M 1919.5,131.5 C 1919.5,139.167 1919.5,146.833 1919.5,154.5C 1914.62,163.619 1906.95,168.786 1896.5,170C 1880.82,171.687 1865.49,170.187 1850.5,165.5C 1849.61,166.325 1849.28,167.325 1849.5,168.5C 1834.5,168.5 1819.5,168.5 1804.5,168.5C 1804.5,162.167 1804.5,155.833 1804.5,149.5C 1806.5,149.5 1808.5,149.5 1810.5,149.5C 1810.33,147.139 1809.99,144.806 1809.5,142.5C 1805.5,142.5 1801.5,142.5 1797.5,142.5C 1797.33,144.861 1796.99,147.194 1796.5,149.5C 1798.5,149.5 1800.5,149.5 1802.5,149.5C 1802.5,155.833 1802.5,162.167 1802.5,168.5C 1789.17,168.5 1775.83,168.5 1762.5,168.5C 1762.33,162.491 1762.5,156.491 1763,150.5C 1765,150.004 1766.66,149.004 1768,147.5C 1771.17,135.481 1774.34,123.481 1777.5,111.5C 1770.17,111.5 1762.83,111.5 1755.5,111.5C 1755.5,108.833 1755.5,106.167 1755.5,103.5C 1754.17,103.5 1752.83,103.5 1751.5,103.5C 1751.5,118.833 1751.5,134.167 1751.5,149.5C 1754.17,149.5 1756.83,149.5 1759.5,149.5C 1759.5,155.833 1759.5,162.167 1759.5,168.5C 1728.83,168.5 1698.17,168.5 1667.5,168.5C 1667.5,162.167 1667.5,155.833 1667.5,149.5C 1669.5,149.5 1671.5,149.5 1673.5,149.5C 1673.33,147.139 1672.99,144.806 1672.5,142.5C 1668.5,142.5 1664.5,142.5 1660.5,142.5C 1660.33,144.861 1659.99,147.194 1659.5,149.5C 1661.5,149.5 1663.5,149.5 1665.5,149.5C 1665.5,155.833 1665.5,162.167 1665.5,168.5C 1652.5,168.5 1639.5,168.5 1626.5,168.5C 1626.5,162.167 1626.5,155.833 1626.5,149.5C 1628.14,149.714 1629.64,149.38 1631,148.5C 1636.68,127.45 1642.51,106.45 1648.5,85.5C 1662.48,84.5008 1676.48,84.1674 1690.5,84.5C 1692.76,97.6131 1693.76,97.6131 1693.5,84.5C 1721.5,84.5 1749.5,84.5 1777.5,84.5C 1777.33,93.1731 1777.5,101.84 1778,110.5C 1780.43,101.949 1782.93,93.4489 1785.5,85C 1799.5,84.5001 1813.5,84.3334 1827.5,84.5C 1833.02,105.901 1838.85,127.234 1845,148.5C 1846.36,149.38 1847.86,149.714 1849.5,149.5C 1849.5,147.167 1849.5,144.833 1849.5,142.5C 1858.19,142.169 1866.86,142.502 1875.5,143.5C 1878.55,149.081 1882.21,149.581 1886.5,145C 1885.83,144 1885.17,143 1884.5,142C 1875.56,138.531 1866.9,134.531 1858.5,130C 1848.18,120.359 1845.68,108.859 1851,95.5C 1856.07,87.878 1863.23,83.7113 1872.5,83C 1886.82,81.38 1900.82,82.7134 1914.5,87C 1915.5,87.5 1916.5,88 1917.5,88.5C 1918.5,95.4684 1918.83,102.468 1918.5,109.5C 1910.17,109.5 1901.83,109.5 1893.5,109.5C 1893.67,108.178 1893.34,107.011 1892.5,106C 1889.85,105.503 1887.19,105.336 1884.5,105.5C 1884.24,106.978 1884.57,108.311 1885.5,109.5C 1894.82,111.994 1903.48,115.827 1911.5,121C 1915.05,123.975 1917.71,127.475 1919.5,131.5 Z M 1715.5,103.5 C 1716.83,103.5 1718.17,103.5 1719.5,103.5C 1719.5,118.833 1719.5,134.167 1719.5,149.5C 1715.56,149.793 1711.73,149.46 1708,148.5C 1704.73,136.238 1701.23,124.071 1697.5,112C 1703.49,111.501 1709.49,111.334 1715.5,111.5C 1715.5,108.833 1715.5,106.167 1715.5,103.5 Z M 1666.5,116.5 C 1668.25,120.889 1669.25,125.556 1669.5,130.5C 1667.5,130.5 1665.5,130.5 1663.5,130.5C 1664.25,125.752 1665.25,121.085 1666.5,116.5 Z M 1803.5,116.5 C 1804.99,120.942 1805.99,125.609 1806.5,130.5C 1804.5,130.5 1802.5,130.5 1800.5,130.5C 1801.25,125.752 1802.25,121.085 1803.5,116.5 Z"/></g>
<g><path style="opacity:0.903" fill="#000000" d="M 426.5,84.5 C 442.833,84.5 459.167,84.5 475.5,84.5C 475.5,90.8333 475.5,97.1667 475.5,103.5C 472.5,103.5 469.5,103.5 466.5,103.5C 466.5,118.833 466.5,134.167 466.5,149.5C 468.5,149.5 470.5,149.5 472.5,149.5C 472.5,146.167 472.5,142.833 472.5,139.5C 480.833,139.5 489.167,139.5 497.5,139.5C 497.5,142.833 497.5,146.167 497.5,149.5C 499.5,149.5 501.5,149.5 503.5,149.5C 503.5,134.167 503.5,118.833 503.5,103.5C 501.5,103.5 499.5,103.5 497.5,103.5C 497.5,97.1667 497.5,90.8333 497.5,84.5C 512.833,84.5 528.167,84.5 543.5,84.5C 543.5,90.8333 543.5,97.1667 543.5,103.5C 541.167,103.5 538.833,103.5 536.5,103.5C 536.5,118.833 536.5,134.167 536.5,149.5C 538.833,149.5 541.167,149.5 543.5,149.5C 543.5,155.833 543.5,162.167 543.5,168.5C 504.5,168.5 465.5,168.5 426.5,168.5C 426.5,162.167 426.5,155.833 426.5,149.5C 428.833,149.5 431.167,149.5 433.5,149.5C 433.5,134.167 433.5,118.833 433.5,103.5C 431.167,103.5 428.833,103.5 426.5,103.5C 426.5,97.1667 426.5,90.8333 426.5,84.5 Z"/></g>
<g><path style="opacity:0.917" fill="#000000" d="M 544.5,84.5 C 563.17,84.3334 581.836,84.5001 600.5,85C 616.654,87.8203 626.154,97.3203 629,113.5C 631.73,127.391 630.063,140.725 624,153.5C 618.343,161.75 610.51,166.584 600.5,168C 581.836,168.5 563.17,168.667 544.5,168.5C 544.5,162.167 544.5,155.833 544.5,149.5C 546.5,149.5 548.5,149.5 550.5,149.5C 550.5,134.167 550.5,118.833 550.5,103.5C 548.5,103.5 546.5,103.5 544.5,103.5C 544.5,97.1667 544.5,90.8333 544.5,84.5 Z M 583.5,103.5 C 587.033,103.505 590.2,104.505 593,106.5C 593.667,119.833 593.667,133.167 593,146.5C 590.2,148.495 587.033,149.495 583.5,149.5C 583.5,134.167 583.5,118.833 583.5,103.5 Z"/></g>
<g><path style="opacity:0.915" fill="#000000" d="M 650.5,84.5 C 664.167,84.5 677.833,84.5 691.5,84.5C 697.022,105.901 702.855,127.234 709,148.5C 712.394,149.456 715.894,149.789 719.5,149.5C 719.5,134.167 719.5,118.833 719.5,103.5C 717.167,103.5 714.833,103.5 712.5,103.5C 712.5,97.1667 712.5,90.8333 712.5,84.5C 733.503,84.3334 754.503,84.5 775.5,85C 788.237,87.7615 794.57,95.7615 794.5,109C 794.574,117.487 791.241,124.153 784.5,129C 787.664,129.992 790.164,131.825 792,134.5C 793.325,139.401 793.825,144.401 793.5,149.5C 795.167,149.5 796.833,149.5 798.5,149.5C 798.5,155.833 798.5,162.167 798.5,168.5C 786.167,168.5 773.833,168.5 761.5,168.5C 761.666,158.494 761.5,148.494 761,138.5C 759.188,135.179 756.355,133.845 752.5,134.5C 752.5,139.5 752.5,144.5 752.5,149.5C 754.833,149.5 757.167,149.5 759.5,149.5C 759.5,155.833 759.5,162.167 759.5,168.5C 729.167,168.5 698.833,168.5 668.5,168.5C 668.334,162.491 668.501,156.491 669,150.5C 670.699,149.594 672.533,149.261 674.5,149.5C 674.682,147.409 674.348,145.409 673.5,143.5C 669.555,142.509 665.555,142.176 661.5,142.5C 661.326,144.861 660.993,147.194 660.5,149.5C 662.5,149.5 664.5,149.5 666.5,149.5C 666.5,155.833 666.5,162.167 666.5,168.5C 653.5,168.5 640.5,168.5 627.5,168.5C 627.5,162.167 627.5,155.833 627.5,149.5C 629.167,149.5 630.833,149.5 632.5,149.5C 638.1,127.703 644.1,106.037 650.5,84.5 Z M 752.5,103.5 C 758.612,102.746 761.612,105.413 761.5,111.5C 761.612,117.587 758.612,120.254 752.5,119.5C 752.5,114.167 752.5,108.833 752.5,103.5 Z M 667.5,115.5 C 669.118,120.256 670.118,125.256 670.5,130.5C 668.5,130.5 666.5,130.5 664.5,130.5C 665.373,125.469 666.373,120.469 667.5,115.5 Z"/></g>
<g><path style="opacity:0.911" fill="#000000" d="M 929.5,110.5 C 922.254,111.464 914.92,111.797 907.5,111.5C 907.5,108.833 907.5,106.167 907.5,103.5C 906.167,103.5 904.833,103.5 903.5,103.5C 903.5,118.833 903.5,134.167 903.5,149.5C 906.167,149.5 908.833,149.5 911.5,149.5C 911.5,155.833 911.5,162.167 911.5,168.5C 895.5,168.5 879.5,168.5 863.5,168.5C 863.5,162.167 863.5,155.833 863.5,149.5C 865.833,149.5 868.167,149.5 870.5,149.5C 870.5,134.167 870.5,118.833 870.5,103.5C 869.5,103.5 868.5,103.5 867.5,103.5C 867.768,106.119 867.435,108.619 866.5,111C 859.508,111.5 852.508,111.666 845.5,111.5C 845.5,108.833 845.5,106.167 845.5,103.5C 843.5,103.5 841.5,103.5 839.5,103.5C 839.5,118.833 839.5,134.167 839.5,149.5C 841.833,149.5 844.167,149.5 846.5,149.5C 846.5,155.833 846.5,162.167 846.5,168.5C 831.167,168.5 815.833,168.5 800.5,168.5C 800.5,162.167 800.5,155.833 800.5,149.5C 802.833,149.5 805.167,149.5 807.5,149.5C 807.5,134.167 807.5,118.833 807.5,103.5C 805.167,103.5 802.833,103.5 800.5,103.5C 800.5,97.1667 800.5,90.8333 800.5,84.5C 843.5,84.5 886.5,84.5 929.5,84.5C 929.5,93.1667 929.5,101.833 929.5,110.5 Z"/></g>
<g><path style="opacity:0.914" fill="#000000" d="M 1104.5,84.5 C 1132.5,84.5 1160.5,84.5 1188.5,84.5C 1188.33,93.1731 1188.5,101.84 1189,110.5C 1191.31,101.914 1193.81,93.4136 1196.5,85C 1210.5,84.5001 1224.5,84.3334 1238.5,84.5C 1244.32,106.13 1249.99,127.797 1255.5,149.5C 1258.5,149.5 1261.5,149.5 1264.5,149.5C 1264.5,134.167 1264.5,118.833 1264.5,103.5C 1262.5,103.5 1260.5,103.5 1258.5,103.5C 1258.5,97.1667 1258.5,90.8333 1258.5,84.5C 1272.5,84.3334 1286.5,84.5001 1300.5,85C 1308.54,97.5854 1316.71,110.085 1325,122.5C 1325.5,116.175 1325.67,109.842 1325.5,103.5C 1323.21,103.756 1321.04,103.423 1319,102.5C 1318.19,96.5837 1318.36,90.7504 1319.5,85C 1332.83,84.5001 1346.16,84.3334 1359.5,84.5C 1359.5,90.8333 1359.5,97.1667 1359.5,103.5C 1357.17,103.5 1354.83,103.5 1352.5,103.5C 1352.5,125.167 1352.5,146.833 1352.5,168.5C 1341.48,168.832 1330.48,168.499 1319.5,167.5C 1310.11,153.28 1300.94,138.947 1292,124.5C 1291.5,132.827 1291.33,141.16 1291.5,149.5C 1293.5,149.5 1295.5,149.5 1297.5,149.5C 1297.5,155.833 1297.5,162.167 1297.5,168.5C 1270.17,168.5 1242.83,168.5 1215.5,168.5C 1215.5,162.167 1215.5,155.833 1215.5,149.5C 1217.5,149.5 1219.5,149.5 1221.5,149.5C 1221.33,147.139 1220.99,144.806 1220.5,142.5C 1216.5,142.5 1212.5,142.5 1208.5,142.5C 1208.33,144.861 1207.99,147.194 1207.5,149.5C 1209.5,149.5 1211.5,149.5 1213.5,149.5C 1213.5,155.833 1213.5,162.167 1213.5,168.5C 1200.17,168.5 1186.83,168.5 1173.5,168.5C 1173.5,162.167 1173.5,155.833 1173.5,149.5C 1175.17,149.5 1176.83,149.5 1178.5,149.5C 1181.83,136.833 1185.17,124.167 1188.5,111.5C 1181.17,111.5 1173.83,111.5 1166.5,111.5C 1166.5,108.833 1166.5,106.167 1166.5,103.5C 1165.17,103.5 1163.83,103.5 1162.5,103.5C 1162.5,118.833 1162.5,134.167 1162.5,149.5C 1165.17,149.5 1167.83,149.5 1170.5,149.5C 1170.5,155.833 1170.5,162.167 1170.5,168.5C 1154.5,168.5 1138.5,168.5 1122.5,168.5C 1122.5,162.167 1122.5,155.833 1122.5,149.5C 1124.83,149.5 1127.17,149.5 1129.5,149.5C 1129.5,134.167 1129.5,118.833 1129.5,103.5C 1128.5,103.5 1127.5,103.5 1126.5,103.5C 1126.5,106.167 1126.5,108.833 1126.5,111.5C 1119.17,111.5 1111.83,111.5 1104.5,111.5C 1104.5,102.5 1104.5,93.5 1104.5,84.5 Z M 1214.5,116.5 C 1215.99,120.942 1216.99,125.609 1217.5,130.5C 1215.5,130.5 1213.5,130.5 1211.5,130.5C 1212.25,125.752 1213.25,121.085 1214.5,116.5 Z"/></g>
<g><path style="opacity:0.914" fill="#000000" d="M 1360.5,84.5 C 1381.89,84.0451 1403.22,84.5451 1424.5,86C 1434.23,89.7462 1439.39,96.9129 1440,107.5C 1441.94,99.904 1444.11,92.404 1446.5,85C 1460.5,84.5001 1474.5,84.3334 1488.5,84.5C 1494.02,105.901 1499.85,127.234 1506,148.5C 1507.36,149.38 1508.86,149.714 1510.5,149.5C 1510.5,155.833 1510.5,162.167 1510.5,168.5C 1495.5,168.5 1480.5,168.5 1465.5,168.5C 1465.5,162.167 1465.5,155.833 1465.5,149.5C 1467.5,149.5 1469.5,149.5 1471.5,149.5C 1471.33,147.139 1470.99,144.806 1470.5,142.5C 1466.5,142.5 1462.5,142.5 1458.5,142.5C 1458.33,144.861 1457.99,147.194 1457.5,149.5C 1459.5,149.5 1461.5,149.5 1463.5,149.5C 1463.5,155.833 1463.5,162.167 1463.5,168.5C 1450.17,168.5 1436.83,168.5 1423.5,168.5C 1423.33,162.491 1423.5,156.491 1424,150.5C 1426,150.004 1427.66,149.004 1429,147.5C 1430.99,141.234 1432.32,134.9 1433,128.5C 1429.75,132.366 1425.58,134.533 1420.5,135C 1413.51,135.5 1406.51,135.666 1399.5,135.5C 1399.5,140.167 1399.5,144.833 1399.5,149.5C 1402.83,149.5 1406.17,149.5 1409.5,149.5C 1409.5,155.833 1409.5,162.167 1409.5,168.5C 1393.17,168.5 1376.83,168.5 1360.5,168.5C 1360.5,162.167 1360.5,155.833 1360.5,149.5C 1362.5,149.5 1364.5,149.5 1366.5,149.5C 1366.5,134.167 1366.5,118.833 1366.5,103.5C 1364.5,103.5 1362.5,103.5 1360.5,103.5C 1360.5,97.1667 1360.5,90.8333 1360.5,84.5 Z M 1399.5,103.5 C 1406.5,105.357 1408.33,109.69 1405,116.5C 1403.56,117.26 1402.06,117.926 1400.5,118.5C 1399.51,113.544 1399.17,108.544 1399.5,103.5 Z M 1464.5,116.5 C 1465.99,120.942 1466.99,125.609 1467.5,130.5C 1465.5,130.5 1463.5,130.5 1461.5,130.5C 1462.25,125.752 1463.25,121.085 1464.5,116.5 Z"/></g>
<g><path style="opacity:0.924" fill="#000000" d="M 1542.5,84.5 C 1563.17,84.3334 1583.84,84.5 1604.5,85C 1618.29,87.4553 1624.46,95.6219 1623,109.5C 1621.72,118.114 1616.89,123.614 1608.5,126C 1624.98,131.676 1629.48,142.509 1622,158.5C 1618.91,162.928 1614.74,165.761 1609.5,167C 1587.22,168.457 1564.89,168.957 1542.5,168.5C 1542.5,162.167 1542.5,155.833 1542.5,149.5C 1544.83,149.5 1547.17,149.5 1549.5,149.5C 1549.5,134.167 1549.5,118.833 1549.5,103.5C 1547.17,103.5 1544.83,103.5 1542.5,103.5C 1542.5,97.1667 1542.5,90.8333 1542.5,84.5 Z M 1582.5,103.5 C 1588.31,102.799 1591.31,105.299 1591.5,111C 1591.91,117.421 1588.91,120.255 1582.5,119.5C 1582.5,114.167 1582.5,108.833 1582.5,103.5 Z M 1582.5,132.5 C 1589.42,131.664 1592.42,134.664 1591.5,141.5C 1591.47,143.759 1591.13,145.925 1590.5,148C 1587.94,149.079 1585.27,149.579 1582.5,149.5C 1582.5,143.833 1582.5,138.167 1582.5,132.5 Z"/></g>
<g><path style="opacity:1" fill="#dddec5" d="M 149.5,28.5 C 179.048,36.2193 201.548,53.2193 217,79.5C 239.6,130.014 230.767,174.181 190.5,212C 159.943,234.926 126.61,240.426 90.5,228.5C 140.299,241.624 180.466,227.624 211,186.5C 235.408,142.742 232.408,101.075 202,61.5C 189.341,47.671 174.175,37.671 156.5,31.5C 155.287,31.7472 154.62,32.4138 154.5,33.5C 152.5,32.1667 150.833,30.5 149.5,28.5 Z"/></g>
<g><path style="opacity:1" fill="#dcdbc2" d="M 24.5,158.5 C 35.8304,191.832 57.8304,215.165 90.5,228.5C 72.3509,223.166 57.1842,213.166 45,198.5C 34.9142,186.892 28.0808,173.559 24.5,158.5 Z"/></g>
<g><path style="opacity:1" fill="#f2f2eb" d="M 90.5,228.5 C 57.8304,215.165 35.8304,191.832 24.5,158.5C 14.591,110.873 28.9243,72.5397 67.5,43.5C 68.1067,43.6236 68.44,43.9569 68.5,44.5C 66.4707,46.8585 64.4707,49.1918 62.5,51.5C 60.8333,52.5 59.5,53.8333 58.5,55.5C 36.8346,74.671 25.5013,98.8376 24.5,128C 24.5022,131.021 24.8356,133.854 25.5,136.5C 25.352,141.322 26.0187,145.988 27.5,150.5C 29.1937,158.915 31.8604,166.915 35.5,174.5C 38.3308,181.321 42.3308,187.321 47.5,192.5C 47.7376,194.404 48.7376,195.738 50.5,196.5C 52.8333,199.5 55.5,202.167 58.5,204.5C 58.8333,205.5 59.5,206.167 60.5,206.5C 64.929,210.888 69.929,214.554 75.5,217.5C 76.391,218.11 77.391,218.443 78.5,218.5C 80.8531,220.343 83.5198,221.677 86.5,222.5C 91.6584,225.541 97.325,227.207 103.5,227.5C 104.568,228.434 105.901,228.768 107.5,228.5C 126.363,231.338 144.696,229.338 162.5,222.5C 163.167,222.5 163.5,222.167 163.5,221.5C 163.833,221.5 164.167,221.5 164.5,221.5C 170.795,218.686 176.795,215.353 182.5,211.5C 183.167,211.5 183.5,211.167 183.5,210.5C 185.191,209.136 186.858,207.803 188.5,206.5C 198.168,198.133 206.168,188.466 212.5,177.5C 212.5,177.167 212.5,176.833 212.5,176.5C 213.117,176.389 213.617,176.056 214,175.5C 218.421,163.813 221.588,151.813 223.5,139.5C 224.165,135.849 224.499,132.015 224.5,128C 224.689,122.248 224.022,116.748 222.5,111.5C 220.456,100.775 216.789,90.775 211.5,81.5C 207.02,72.6815 201.02,65.0148 193.5,58.5C 188.053,52.3877 181.72,47.3877 174.5,43.5C 169.044,40.4554 163.377,37.7888 157.5,35.5C 155.973,35.573 154.973,34.9063 154.5,33.5C 154.62,32.4138 155.287,31.7472 156.5,31.5C 174.175,37.671 189.341,47.671 202,61.5C 232.408,101.075 235.408,142.742 211,186.5C 180.466,227.624 140.299,241.624 90.5,228.5 Z"/></g>
<g><path style="opacity:1" fill="#a9684f" d="M 102.5,207.5 C 106.432,212.726 108.766,218.726 109.5,225.5C 109.36,227.03 108.693,228.03 107.5,228.5C 105.901,228.768 104.568,228.434 103.5,227.5C 104.5,227.5 105.5,227.5 106.5,227.5C 104.955,223.29 103.955,218.957 103.5,214.5C 103.552,212.097 103.219,209.764 102.5,207.5 Z"/></g>
<g><path style="opacity:1" fill="#cb675d" d="M 94.5,206.5 C 95.8333,206.5 97.1667,206.5 98.5,206.5C 98.8333,208.5 99.1667,210.5 99.5,212.5C 101.199,212.527 102.533,213.194 103.5,214.5C 103.955,218.957 104.955,223.29 106.5,227.5C 105.5,227.5 104.5,227.5 103.5,227.5C 97.325,227.207 91.6584,225.541 86.5,222.5C 88.5914,222.318 90.5914,222.652 92.5,223.5C 92.8333,223 93.1667,222.5 93.5,222C 94.4249,216.884 94.7582,211.717 94.5,206.5 Z"/></g>
<g><path style="opacity:1" fill="#af5957" d="M 87.5,208.5 C 84.9567,212.111 81.6233,214.778 77.5,216.5C 77.8627,217.183 78.1961,217.85 78.5,218.5C 77.391,218.443 76.391,218.11 75.5,217.5C 75.5,216.167 75.5,214.833 75.5,213.5C 77.0269,213.573 78.0269,212.906 78.5,211.5C 81.7431,211.086 84.7431,210.086 87.5,208.5 Z"/></g>
<g><path style="opacity:1" fill="#ebb183" d="M 163.5,193.5 C 163.534,196.199 162.867,198.699 161.5,201C 162.337,202.011 162.67,203.178 162.5,204.5C 159.048,206.401 155.381,207.901 151.5,209C 149.457,210.708 147.79,212.708 146.5,215C 147.167,215.667 147.833,216.333 148.5,217C 140.573,220.693 132.24,222.359 123.5,222C 124.167,219.667 124.833,217.333 125.5,215C 127.811,215.155 130.144,215.155 132.5,215C 133.935,212.158 135.935,209.992 138.5,208.5C 149.01,204.151 157.177,197.151 163,187.5C 163.495,189.473 163.662,191.473 163.5,193.5 Z"/></g>
<g><path style="opacity:1" fill="#c0504b" d="M 94.5,206.5 C 94.7582,211.717 94.4249,216.884 93.5,222C 93.1667,222.5 92.8333,223 92.5,223.5C 90.5914,222.652 88.5914,222.318 86.5,222.5C 83.5198,221.677 80.8531,220.343 78.5,218.5C 78.1961,217.85 77.8627,217.183 77.5,216.5C 81.6233,214.778 84.9567,212.111 87.5,208.5C 90.8329,208.973 92.9996,207.64 94,204.5C 94.4643,205.094 94.631,205.761 94.5,206.5 Z"/></g>
<g><path style="opacity:1" fill="#e8a275" d="M 163.5,193.5 C 165.897,199.616 166.063,205.95 164,212.5C 162.443,215.172 161.276,218.005 160.5,221C 160.836,222.03 161.503,222.53 162.5,222.5C 144.696,229.338 126.363,231.338 107.5,228.5C 108.693,228.03 109.36,227.03 109.5,225.5C 108.766,218.726 106.432,212.726 102.5,207.5C 101.213,204.594 100.213,201.594 99.5,198.5C 104.349,202.424 109.682,206.591 115.5,211C 121.565,212.991 127.565,212.825 133.5,210.5C 135.05,209.559 136.716,208.893 138.5,208.5C 135.935,209.992 133.935,212.158 132.5,215C 130.144,215.155 127.811,215.155 125.5,215C 124.833,217.333 124.167,219.667 123.5,222C 132.24,222.359 140.573,220.693 148.5,217C 147.833,216.333 147.167,215.667 146.5,215C 147.79,212.708 149.457,210.708 151.5,209C 155.381,207.901 159.048,206.401 162.5,204.5C 162.67,203.178 162.337,202.011 161.5,201C 162.867,198.699 163.534,196.199 163.5,193.5 Z"/></g>
<g><path style="opacity:1" fill="#cb6d61" d="M 174.5,181.5 C 175.458,181.953 176.292,182.619 177,183.5C 180.742,192.465 182.575,201.798 182.5,211.5C 176.795,215.353 170.795,218.686 164.5,221.5C 166.397,218.053 168.563,214.72 171,211.5C 175.237,201.843 176.403,191.843 174.5,181.5 Z"/></g>
<g><path style="opacity:1" fill="#da8352" d="M 94.5,187.5 C 97.6339,188.901 100.634,190.568 103.5,192.5C 107.254,194.748 110.588,197.581 113.5,201C 115.5,201.333 117.5,201.667 119.5,202C 120.471,203.481 121.804,204.315 123.5,204.5C 124.873,204.657 126.207,204.49 127.5,204C 132.055,200.555 137.055,197.888 142.5,196C 144.618,194.951 146.284,193.451 147.5,191.5C 148.167,191.167 148.833,190.833 149.5,190.5C 149.833,190.5 150.167,190.5 150.5,190.5C 146.993,197.506 141.66,202.673 134.5,206C 135.167,206.333 135.833,206.667 136.5,207C 134.937,207.759 133.937,208.926 133.5,210.5C 127.565,212.825 121.565,212.991 115.5,211C 109.682,206.591 104.349,202.424 99.5,198.5C 98.1012,195.371 96.4345,192.371 94.5,189.5C 94.5,188.833 94.5,188.167 94.5,187.5 Z"/></g>
<g><path style="opacity:1" fill="#8d625c" d="M 78.5,211.5 C 78.0269,212.906 77.0269,213.573 75.5,213.5C 75.5,207.5 75.5,201.5 75.5,195.5C 76.3019,194.048 76.8019,192.382 77,190.5C 78.0113,189.663 79.1779,189.33 80.5,189.5C 79.2715,196.77 78.6048,204.104 78.5,211.5 Z"/></g>
<g><path style="opacity:1" fill="#b8958e" d="M 77.5,186.5 C 75.877,189.215 75.2104,192.215 75.5,195.5C 75.5,201.5 75.5,207.5 75.5,213.5C 75.5,214.833 75.5,216.167 75.5,217.5C 69.929,214.554 64.929,210.888 60.5,206.5C 61.494,205.001 61.494,203.334 60.5,201.5C 61.8589,202.007 62.8589,203.007 63.5,204.5C 64.9347,203.176 65.9347,201.51 66.5,199.5C 67.279,202.066 68.779,204.066 71,205.5C 70.8436,201.494 70.3436,197.494 69.5,193.5C 70.5,193.5 71.5,193.5 72.5,193.5C 71.533,189.149 73.1996,186.815 77.5,186.5 Z"/></g>
<g><path style="opacity:1" fill="#a65548" d="M 94.5,189.5 C 96.4345,192.371 98.1012,195.371 99.5,198.5C 100.213,201.594 101.213,204.594 102.5,207.5C 103.219,209.764 103.552,212.097 103.5,214.5C 102.533,213.194 101.199,212.527 99.5,212.5C 99.1667,210.5 98.8333,208.5 98.5,206.5C 97.1667,206.5 95.8333,206.5 94.5,206.5C 94.631,205.761 94.4643,205.094 94,204.5C 92.9996,207.64 90.8329,208.973 87.5,208.5C 88.2613,207.609 89.2613,206.942 90.5,206.5C 91.912,202.283 92.5787,197.95 92.5,193.5C 93.3446,192.329 94.0113,190.995 94.5,189.5 Z"/></g>
<g><path style="opacity:1" fill="#b08882" d="M 92.5,193.5 C 92.5787,197.95 91.912,202.283 90.5,206.5C 89.2613,206.942 88.2613,207.609 87.5,208.5C 84.7431,210.086 81.7431,211.086 78.5,211.5C 78.6048,204.104 79.2715,196.77 80.5,189.5C 79.1779,189.33 78.0113,189.663 77,190.5C 76.8019,192.382 76.3019,194.048 75.5,195.5C 75.2104,192.215 75.877,189.215 77.5,186.5C 79.0532,184.615 81.0532,183.615 83.5,183.5C 83.6427,185.262 83.3094,186.929 82.5,188.5C 84.752,192.167 86.0853,196.167 86.5,200.5C 87.9305,200.579 89.2638,200.246 90.5,199.5C 91.1687,197.369 91.8354,195.369 92.5,193.5 Z"/></g>
<g><path style="opacity:1" fill="#a1605c" d="M 55.5,195.5 C 57.9486,196.94 59.6153,198.94 60.5,201.5C 61.494,203.334 61.494,205.001 60.5,206.5C 59.5,206.167 58.8333,205.5 58.5,204.5C 59.0431,204.44 59.3764,204.107 59.5,203.5C 58.5467,200.574 57.2134,197.907 55.5,195.5 Z"/></g>
<g><path style="opacity:1" fill="#bc5553" d="M 55.5,194.5 C 55.5,194.833 55.5,195.167 55.5,195.5C 57.2134,197.907 58.5467,200.574 59.5,203.5C 59.3764,204.107 59.0431,204.44 58.5,204.5C 55.5,202.167 52.8333,199.5 50.5,196.5C 50.4606,195.417 50.1272,194.417 49.5,193.5C 51.6165,192.531 53.6165,192.864 55.5,194.5 Z"/></g>
<g><path style="opacity:1" fill="#a86c4f" d="M 165.5,189.5 C 169.301,190.654 171.301,193.321 171.5,197.5C 172.09,202.64 171.09,207.307 168.5,211.5C 168.767,203.977 167.767,196.644 165.5,189.5 Z"/></g>
<g><path style="opacity:1" fill="#a19185" d="M 197.5,183.5 C 195.485,188.689 192.985,193.689 190,198.5C 188.921,201.063 188.421,203.729 188.5,206.5C 186.858,207.803 185.191,209.136 183.5,210.5C 183.553,203.421 182.887,196.421 181.5,189.5C 183.592,189.561 185.092,190.561 186,192.5C 187,191.167 188,191.167 189,192.5C 189.483,191.552 189.649,190.552 189.5,189.5C 192.595,189.374 194.428,187.707 195,184.5C 195.671,183.748 196.504,183.414 197.5,183.5 Z"/></g>
<g><path style="opacity:1" fill="#5b2910" d="M 147.5,191.5 C 146.284,193.451 144.618,194.951 142.5,196C 137.055,197.888 132.055,200.555 127.5,204C 126.207,204.49 124.873,204.657 123.5,204.5C 121.915,201.586 119.415,199.919 116,199.5C 115.342,197.892 115.842,196.725 117.5,196C 115.754,195.529 114.087,194.862 112.5,194C 116.162,193.719 119.829,193.885 123.5,194.5C 131.153,193.307 138.819,191.973 146.5,190.5C 147.107,190.624 147.44,190.957 147.5,191.5 Z"/></g>
<g><path style="opacity:1" fill="#93493f" d="M 174.5,181.5 C 176.403,191.843 175.237,201.843 171,211.5C 168.563,214.72 166.397,218.053 164.5,221.5C 164.167,221.5 163.833,221.5 163.5,221.5C 162.427,220.749 162.26,219.749 163,218.5C 165.325,216.499 167.158,214.166 168.5,211.5C 171.09,207.307 172.09,202.64 171.5,197.5C 172.222,197.918 172.722,198.584 173,199.5C 173.167,198.833 173.333,198.167 173.5,197.5C 172.295,193.885 171.295,190.218 170.5,186.5C 170.777,183.898 172.111,182.231 174.5,181.5 Z"/></g>
<g><path style="opacity:1" fill="#682d12" d="M 149.5,190.5 C 148.833,190.833 148.167,191.167 147.5,191.5C 147.44,190.957 147.107,190.624 146.5,190.5C 138.819,191.973 131.153,193.307 123.5,194.5C 119.829,193.885 116.162,193.719 112.5,194C 114.087,194.862 115.754,195.529 117.5,196C 115.842,196.725 115.342,197.892 116,199.5C 119.415,199.919 121.915,201.586 123.5,204.5C 121.804,204.315 120.471,203.481 119.5,202C 117.5,201.667 115.5,201.333 113.5,201C 110.588,197.581 107.254,194.748 103.5,192.5C 104.919,191.549 106.585,191.216 108.5,191.5C 112.291,191.252 116.124,191.252 120,191.5C 121.46,189.578 123.127,188.911 125,189.5C 125.49,188.207 125.657,186.873 125.5,185.5C 126.5,185.5 127.5,185.5 128.5,185.5C 128.5,186.5 128.5,187.5 128.5,188.5C 135.755,187.326 142.755,187.992 149.5,190.5 Z"/></g>
<g><path style="opacity:1" fill="#b8706f" d="M 51.5,188.5 C 53.2516,190.246 54.5849,192.246 55.5,194.5C 53.6165,192.864 51.6165,192.531 49.5,193.5C 50.1272,194.417 50.4606,195.417 50.5,196.5C 48.7376,195.738 47.7376,194.404 47.5,192.5C 47.894,190.29 49.2273,188.957 51.5,188.5 Z"/></g>
<g><path style="opacity:1" fill="#bfada4" d="M 212.5,177.5 C 206.168,188.466 198.168,198.133 188.5,206.5C 188.421,203.729 188.921,201.063 190,198.5C 192.985,193.689 195.485,188.689 197.5,183.5C 198.376,183.631 199.043,183.298 199.5,182.5C 196.353,183.138 193.853,182.138 192,179.5C 190.938,180.097 189.772,180.43 188.5,180.5C 183.993,180.024 179.66,179.357 175.5,178.5C 175.5,178.167 175.5,177.833 175.5,177.5C 176.833,177.5 178.167,177.5 179.5,177.5C 190.427,176.178 201.427,176.178 212.5,177.5 Z"/></g>
<g><path style="opacity:1" fill="#c1a7a0" d="M 85.5,179.5 C 85.3284,180.492 85.6618,181.158 86.5,181.5C 87.9206,183.907 89.2539,186.407 90.5,189C 91.3317,189.688 91.9984,189.521 92.5,188.5C 91.7542,187.264 91.4208,185.93 91.5,184.5C 92.8333,185.167 93.8333,186.167 94.5,187.5C 94.5,188.167 94.5,188.833 94.5,189.5C 94.0113,190.995 93.3446,192.329 92.5,193.5C 91.8354,195.369 91.1687,197.369 90.5,199.5C 89.2638,200.246 87.9305,200.579 86.5,200.5C 86.0853,196.167 84.752,192.167 82.5,188.5C 83.3094,186.929 83.6427,185.262 83.5,183.5C 81.0532,183.615 79.0532,184.615 77.5,186.5C 73.1996,186.815 71.533,189.149 72.5,193.5C 71.5,193.5 70.5,193.5 69.5,193.5C 70.3436,197.494 70.8436,201.494 71,205.5C 68.779,204.066 67.279,202.066 66.5,199.5C 65.9347,201.51 64.9347,203.176 63.5,204.5C 62.8589,203.007 61.8589,202.007 60.5,201.5C 59.6153,198.94 57.9486,196.94 55.5,195.5C 55.5,195.167 55.5,194.833 55.5,194.5C 54.5849,192.246 53.2516,190.246 51.5,188.5C 62.7543,185.248 74.0876,182.248 85.5,179.5 Z"/></g>
<g><path style="opacity:1" fill="#b7998e" d="M 175.5,178.5 C 179.66,179.357 183.993,180.024 188.5,180.5C 189.772,180.43 190.938,180.097 192,179.5C 193.853,182.138 196.353,183.138 199.5,182.5C 199.043,183.298 198.376,183.631 197.5,183.5C 196.504,183.414 195.671,183.748 195,184.5C 194.428,187.707 192.595,189.374 189.5,189.5C 189.649,190.552 189.483,191.552 189,192.5C 188,191.167 187,191.167 186,192.5C 185.092,190.561 183.592,189.561 181.5,189.5C 182.887,196.421 183.553,203.421 183.5,210.5C 183.5,211.167 183.167,211.5 182.5,211.5C 182.575,201.798 180.742,192.465 177,183.5C 176.292,182.619 175.458,181.953 174.5,181.5C 174.586,180.504 174.252,179.671 173.5,179C 174.094,178.536 174.761,178.369 175.5,178.5 Z"/></g>
<g><path style="opacity:1" fill="#7c3b19" d="M 154.5,184.5 C 155.167,184.5 155.5,184.833 155.5,185.5C 154.027,187.395 152.36,189.061 150.5,190.5C 150.167,190.5 149.833,190.5 149.5,190.5C 142.755,187.992 135.755,187.326 128.5,188.5C 128.5,187.5 128.5,186.5 128.5,185.5C 127.5,185.5 126.5,185.5 125.5,185.5C 125.657,186.873 125.49,188.207 125,189.5C 123.127,188.911 121.46,189.578 120,191.5C 116.124,191.252 112.291,191.252 108.5,191.5C 108.5,191.167 108.5,190.833 108.5,190.5C 109.71,190.068 110.71,189.401 111.5,188.5C 116.135,187.509 119.802,185.009 122.5,181C 127.5,180.333 132.5,180.333 137.5,181C 140.476,184.069 143.976,186.235 148,187.5C 150.511,187.16 152.678,186.16 154.5,184.5 Z"/></g>
<g><path style="opacity:1" fill="#af633c" d="M 89.5,180.5 C 92.7754,183.808 96.442,186.642 100.5,189C 103.014,190.252 105.68,190.752 108.5,190.5C 108.5,190.833 108.5,191.167 108.5,191.5C 106.585,191.216 104.919,191.549 103.5,192.5C 100.634,190.568 97.6339,188.901 94.5,187.5C 93.8333,186.167 92.8333,185.167 91.5,184.5C 90.3995,183.395 89.7329,182.062 89.5,180.5 Z"/></g>
<g><path style="opacity:1" fill="#de9260" d="M 163.5,179.5 C 163.788,182.939 164.454,186.272 165.5,189.5C 167.767,196.644 168.767,203.977 168.5,211.5C 167.158,214.166 165.325,216.499 163,218.5C 162.26,219.749 162.427,220.749 163.5,221.5C 163.5,222.167 163.167,222.5 162.5,222.5C 161.503,222.53 160.836,222.03 160.5,221C 161.276,218.005 162.443,215.172 164,212.5C 166.063,205.95 165.897,199.616 163.5,193.5C 163.662,191.473 163.495,189.473 163,187.5C 157.177,197.151 149.01,204.151 138.5,208.5C 136.716,208.893 135.05,209.559 133.5,210.5C 133.937,208.926 134.937,207.759 136.5,207C 135.833,206.667 135.167,206.333 134.5,206C 141.66,202.673 146.993,197.506 150.5,190.5C 152.36,189.061 154.027,187.395 155.5,185.5C 157.803,183.022 159.969,180.355 162,177.5C 162.278,178.416 162.778,179.082 163.5,179.5 Z"/></g>
<g><path style="opacity:1" fill="#745a53" d="M 86.5,177.5 C 87.2719,178.694 88.2719,179.694 89.5,180.5C 89.7329,182.062 90.3995,183.395 91.5,184.5C 91.4208,185.93 91.7542,187.264 92.5,188.5C 91.9984,189.521 91.3317,189.688 90.5,189C 89.2539,186.407 87.9206,183.907 86.5,181.5C 86.5,180.167 86.5,178.833 86.5,177.5 Z"/></g>
<g><path style="opacity:1" fill="#77453f" d="M 166.5,167.5 C 166.34,169.199 166.506,170.866 167,172.5C 169.167,173.333 170.667,174.833 171.5,177C 172.793,177.49 174.127,177.657 175.5,177.5C 175.5,177.833 175.5,178.167 175.5,178.5C 174.761,178.369 174.094,178.536 173.5,179C 174.252,179.671 174.586,180.504 174.5,181.5C 172.111,182.231 170.777,183.898 170.5,186.5C 171.295,190.218 172.295,193.885 173.5,197.5C 173.333,198.167 173.167,198.833 173,199.5C 172.722,198.584 172.222,197.918 171.5,197.5C 171.301,193.321 169.301,190.654 165.5,189.5C 164.454,186.272 163.788,182.939 163.5,179.5C 163.401,176.763 163.735,174.096 164.5,171.5C 164.66,169.847 165.326,168.514 166.5,167.5 Z"/></g>
<g><path style="opacity:1" fill="#b36740" d="M 164.5,171.5 C 163.735,174.096 163.401,176.763 163.5,179.5C 162.778,179.082 162.278,178.416 162,177.5C 159.969,180.355 157.803,183.022 155.5,185.5C 155.5,184.833 155.167,184.5 154.5,184.5C 155.5,183.167 156.5,181.833 157.5,180.5C 160.075,177.681 162.408,174.681 164.5,171.5 Z"/></g>
<g><path style="opacity:1" fill="#805e71" d="M 75.5,158.5 C 77.5359,162.249 79.3693,166.249 81,170.5C 82.8419,172.864 84.6753,175.197 86.5,177.5C 86.5,178.833 86.5,180.167 86.5,181.5C 85.6618,181.158 85.3284,180.492 85.5,179.5C 85.0522,176.513 83.5522,175.513 81,176.5C 78.4339,170.75 76.6006,164.75 75.5,158.5 Z"/></g>
<g><path style="opacity:1" fill="#eeb68e" d="M 161.5,120.5 C 163.564,121.058 165.23,122.225 166.5,124C 164.88,129.27 163.88,134.437 163.5,139.5C 162.416,140.665 161.583,141.998 161,143.5C 155.893,141.864 151.06,139.531 146.5,136.5C 145.169,139.049 146.002,140.716 149,141.5C 149.483,142.448 149.649,143.448 149.5,144.5C 153.336,144.189 154.669,145.689 153.5,149C 154.791,151.371 155.791,153.871 156.5,156.5C 158.116,155.885 159.449,154.885 160.5,153.5C 162.447,157.969 162.78,162.636 161.5,167.5C 157.774,167.177 154.107,167.511 150.5,168.5C 151.5,169.333 152.5,170.167 153.5,171C 153.167,171.333 152.833,171.667 152.5,172C 154.167,172.333 155.833,172.667 157.5,173C 155.204,175.65 155.204,178.15 157.5,180.5C 156.5,181.833 155.5,183.167 154.5,184.5C 152.678,186.16 150.511,187.16 148,187.5C 143.976,186.235 140.476,184.069 137.5,181C 132.5,180.333 127.5,180.333 122.5,181C 119.802,185.009 116.135,187.509 111.5,188.5C 109.648,185.337 106.814,183.671 103,183.5C 102.257,180.18 101.09,177.013 99.5,174C 99.7355,173.127 100.069,172.293 100.5,171.5C 98.604,170.534 96.604,170.201 94.5,170.5C 94.5,169.5 94.5,168.5 94.5,167.5C 95.5,167.5 96.5,167.5 97.5,167.5C 97.6601,163.764 98.4934,163.764 100,167.5C 101.547,165.113 103.713,163.78 106.5,163.5C 108.746,164.455 111.079,165.122 113.5,165.5C 112.032,167.916 111.365,170.583 111.5,173.5C 115.371,173.94 119.038,173.94 122.5,173.5C 125.518,173.665 128.518,173.498 131.5,173C 133.32,172.8 134.653,171.966 135.5,170.5C 139.796,170.92 140.463,169.253 137.5,165.5C 137.863,164.817 138.196,164.15 138.5,163.5C 140.537,162.154 142.537,160.82 144.5,159.5C 145.695,159.322 146.862,158.989 148,158.5C 149.879,160.013 152.046,160.679 154.5,160.5C 155.488,155.808 154.154,152.141 150.5,149.5C 145.475,146.932 140.141,144.932 134.5,143.5C 134.082,142.778 133.416,142.278 132.5,142C 142.024,142.429 144.524,138.595 140,130.5C 139.536,131.094 139.369,131.761 139.5,132.5C 138.596,131.791 138.263,130.791 138.5,129.5C 140.262,129.357 141.929,129.691 143.5,130.5C 146.622,134.811 150.622,137.978 155.5,140C 157.579,140.808 159.579,140.641 161.5,139.5C 164.115,133.922 164.115,128.755 161.5,124C 162.167,123.667 162.833,123.333 163.5,123C 162.619,122.292 161.953,121.458 161.5,120.5 Z"/></g>
<g><path style="opacity:1" fill="#ba7f57" d="M 135.5,170.5 C 134.653,171.966 133.32,172.8 131.5,173C 128.518,173.498 125.518,173.665 122.5,173.5C 121.833,173.5 121.5,173.167 121.5,172.5C 126.327,172.779 130.993,172.113 135.5,170.5 Z"/></g>
<g><path style="opacity:1" fill="#6c3217" d="M 135.5,170.5 C 130.993,172.113 126.327,172.779 121.5,172.5C 120.005,172.585 119.005,171.919 118.5,170.5C 119.912,169.194 121.579,168.36 123.5,168C 128.202,167.172 132.869,167.338 137.5,168.5C 136.757,169.182 136.091,169.849 135.5,170.5 Z"/></g>
<g><path style="opacity:1" fill="#e8a67a" d="M 138.5,163.5 C 138.196,164.15 137.863,164.817 137.5,165.5C 140.463,169.253 139.796,170.92 135.5,170.5C 136.091,169.849 136.757,169.182 137.5,168.5C 132.869,167.338 128.202,167.172 123.5,168C 121.579,168.36 119.912,169.194 118.5,170.5C 119.005,171.919 120.005,172.585 121.5,172.5C 121.5,173.167 121.833,173.5 122.5,173.5C 119.038,173.94 115.371,173.94 111.5,173.5C 111.365,170.583 112.032,167.916 113.5,165.5C 121.976,165.994 130.309,165.328 138.5,163.5 Z"/></g>
<g><path style="opacity:1" fill="#835547" d="M 170.5,156.5 C 170.323,160.708 168.99,164.374 166.5,167.5C 167.459,163.617 168.792,159.95 170.5,156.5 Z"/></g>
<g><path style="opacity:1" fill="#ce6d51" d="M 141.5,158.5 C 142.209,159.404 143.209,159.737 144.5,159.5C 142.537,160.82 140.537,162.154 138.5,163.5C 130.309,165.328 121.976,165.994 113.5,165.5C 111.079,165.122 108.746,164.455 106.5,163.5C 106.5,163.167 106.5,162.833 106.5,162.5C 118.011,159.915 129.678,158.582 141.5,158.5 Z"/></g>
<g><path style="opacity:1" fill="#9c3b22" d="M 144.5,157.5 C 144.833,157.5 145.167,157.5 145.5,157.5C 144.432,158.434 143.099,158.768 141.5,158.5C 129.678,158.582 118.011,159.915 106.5,162.5C 102.861,161.732 103.194,161.066 107.5,160.5C 119.721,158.378 132.055,157.378 144.5,157.5 Z"/></g>
<g><path style="opacity:1" fill="#6f5f87" d="M 68.5,154.5 C 69.8195,155.942 71.4862,156.608 73.5,156.5C 74.1667,156.5 74.8333,156.5 75.5,156.5C 75.5,157.167 75.5,157.833 75.5,158.5C 76.6006,164.75 78.4339,170.75 81,176.5C 83.5522,175.513 85.0522,176.513 85.5,179.5C 74.0876,182.248 62.7543,185.248 51.5,188.5C 49.2273,188.957 47.894,190.29 47.5,192.5C 42.3308,187.321 38.3308,181.321 35.5,174.5C 39.3431,170.049 43.0097,165.383 46.5,160.5C 48.9448,158.592 51.6115,157.092 54.5,156C 55.0686,153.097 56.7352,151.097 59.5,150C 61.3289,149.727 62.8289,148.893 64,147.5C 65.3522,150.107 66.8522,152.44 68.5,154.5 Z"/></g>
<g><path style="opacity:1" fill="#bb4f36" d="M 144.5,157.5 C 132.055,157.378 119.721,158.378 107.5,160.5C 109.578,157.949 112.244,156.116 115.5,155C 123.503,154.266 131.503,153.933 139.5,154C 141.346,155.03 143.013,156.196 144.5,157.5 Z"/></g>
<g><path style="opacity:1" fill="#693c6f" d="M 222.5,116.5 C 223.398,124.124 223.731,131.791 223.5,139.5C 221.588,151.813 218.421,163.813 214,175.5C 213.617,176.056 213.117,176.389 212.5,176.5C 204.832,176.095 197.165,175.595 189.5,175C 187.884,174.385 186.551,173.385 185.5,172C 184.207,171.51 182.873,171.343 181.5,171.5C 181.5,170.167 181.5,168.833 181.5,167.5C 182.5,167.5 183.5,167.5 184.5,167.5C 184.201,165.396 184.534,163.396 185.5,161.5C 187.916,162.319 188.082,161.652 186,159.5C 185.333,157.833 185.333,156.167 186,154.5C 188.642,152.762 191.476,151.429 194.5,150.5C 194.5,144.833 194.5,139.167 194.5,133.5C 194.833,133.5 195.167,133.5 195.5,133.5C 196.496,133.586 197.329,133.252 198,132.5C 198.494,130.866 198.66,129.199 198.5,127.5C 201.439,127.082 203.772,125.582 205.5,123C 207.473,122.505 209.473,122.338 211.5,122.5C 211.5,120.5 211.5,118.5 211.5,116.5C 213.5,116.5 215.5,116.5 217.5,116.5C 217.579,115.07 217.246,113.736 216.5,112.5C 217.325,111.614 218.325,111.281 219.5,111.5C 219.687,113.564 220.187,115.564 221,117.5C 221.383,116.944 221.883,116.611 222.5,116.5 Z"/></g>
<g><path style="opacity:1" fill="#9b4c2a" d="M 150.5,149.5 C 154.154,152.141 155.488,155.808 154.5,160.5C 152.046,160.679 149.879,160.013 148,158.5C 146.862,158.989 145.695,159.322 144.5,159.5C 143.209,159.737 142.209,159.404 141.5,158.5C 143.099,158.768 144.432,158.434 145.5,157.5C 146.376,157.631 147.043,157.298 147.5,156.5C 146.451,154.784 145.118,153.451 143.5,152.5C 143.5,151.5 143.5,150.5 143.5,149.5C 138.9,149.655 138.567,148.988 142.5,147.5C 145.13,148.378 147.797,149.045 150.5,149.5 Z"/></g>
<g><path style="opacity:1" fill="#794b39" d="M 171.5,141.5 C 174.297,141.967 175.631,143.633 175.5,146.5C 174.325,146.281 173.325,146.614 172.5,147.5C 173.689,148.429 175.022,148.762 176.5,148.5C 176.5,148.833 176.5,149.167 176.5,149.5C 175.127,149.343 173.793,149.51 172.5,150C 171.891,151.948 171.224,153.782 170.5,155.5C 170.833,150.833 171.167,146.167 171.5,141.5 Z"/></g>
<g><path style="opacity:1" fill="#ba7146" d="M 126.5,144.5 C 124.958,145.141 123.624,146.141 122.5,147.5C 126.796,148.328 131.129,148.828 135.5,149C 136.416,149.278 137.082,149.778 137.5,150.5C 125.705,148.118 115.038,150.451 105.5,157.5C 106.476,156.185 107.476,154.852 108.5,153.5C 105.163,152.334 101.83,152.334 98.5,153.5C 103.709,150.065 109.375,147.398 115.5,145.5C 119.064,144.577 122.731,144.244 126.5,144.5 Z"/></g>
<g><path style="opacity:1" fill="#412842" d="M 191.5,109.5 C 192.167,109.5 192.833,109.5 193.5,109.5C 194.819,117.436 195.486,125.436 195.5,133.5C 195.167,133.5 194.833,133.5 194.5,133.5C 192.862,137.876 192.029,142.542 192,147.5C 189.959,148.423 187.792,148.756 185.5,148.5C 185.216,155.896 183.55,162.896 180.5,169.5C 180.667,170.5 180.833,171.5 181,172.5C 187.491,176.164 186.991,177.831 179.5,177.5C 178.167,177.5 176.833,177.5 175.5,177.5C 174.127,177.657 172.793,177.49 171.5,177C 170.667,174.833 169.167,173.333 167,172.5C 166.506,170.866 166.34,169.199 166.5,167.5C 168.99,164.374 170.323,160.708 170.5,156.5C 170.5,156.167 170.5,155.833 170.5,155.5C 171.224,153.782 171.891,151.948 172.5,150C 173.793,149.51 175.127,149.343 176.5,149.5C 178.017,149.489 179.184,148.823 180,147.5C 180.369,143.137 180.869,138.804 181.5,134.5C 182.786,129.142 182.786,123.642 181.5,118C 182.078,116.189 182.578,114.355 183,112.5C 184.242,114.541 186.075,115.707 188.5,116C 189.071,117.205 189.738,118.372 190.5,119.5C 191.487,116.232 191.82,112.898 191.5,109.5 Z"/></g>
<g><path style="opacity:1" fill="#623d65" d="M 194.5,133.5 C 194.5,139.167 194.5,144.833 194.5,150.5C 191.476,151.429 188.642,152.762 186,154.5C 185.333,156.167 185.333,157.833 186,159.5C 188.082,161.652 187.916,162.319 185.5,161.5C 184.534,163.396 184.201,165.396 184.5,167.5C 183.5,167.5 182.5,167.5 181.5,167.5C 181.5,168.833 181.5,170.167 181.5,171.5C 182.873,171.343 184.207,171.51 185.5,172C 186.551,173.385 187.884,174.385 189.5,175C 197.165,175.595 204.832,176.095 212.5,176.5C 212.5,176.833 212.5,177.167 212.5,177.5C 201.427,176.178 190.427,176.178 179.5,177.5C 186.991,177.831 187.491,176.164 181,172.5C 180.833,171.5 180.667,170.5 180.5,169.5C 183.55,162.896 185.216,155.896 185.5,148.5C 187.792,148.756 189.959,148.423 192,147.5C 192.029,142.542 192.862,137.876 194.5,133.5 Z"/></g>
<g><path style="opacity:1" fill="#af6236" d="M 134.5,143.5 C 140.141,144.932 145.475,146.932 150.5,149.5C 147.797,149.045 145.13,148.378 142.5,147.5C 138.567,148.988 138.9,149.655 143.5,149.5C 143.5,150.5 143.5,151.5 143.5,152.5C 141.214,152.405 139.214,151.738 137.5,150.5C 137.082,149.778 136.416,149.278 135.5,149C 131.129,148.828 126.796,148.328 122.5,147.5C 123.624,146.141 124.958,145.141 126.5,144.5C 129.054,143.612 131.721,143.279 134.5,143.5 Z"/></g>
<g><path style="opacity:1" fill="#e2a781" d="M 65.5,118.5 C 66.1174,118.611 66.6174,118.944 67,119.5C 67.4974,122.146 67.6641,124.813 67.5,127.5C 67.5,130.5 67.5,133.5 67.5,136.5C 70.3301,138.362 71.1634,141.029 70,144.5C 69.1887,143.04 68.3554,142.707 67.5,143.5C 68.3333,145.167 69.1667,146.833 70,148.5C 70.6667,149.833 71.3333,149.833 72,148.5C 73.0793,151.063 73.5793,153.729 73.5,156.5C 71.4862,156.608 69.8195,155.942 68.5,154.5C 67.0271,149.415 65.3604,144.415 63.5,139.5C 63.2941,135.102 63.6274,130.768 64.5,126.5C 64.7678,124.901 64.4345,123.568 63.5,122.5C 63.1583,121.662 62.4916,121.328 61.5,121.5C 61.5,120.5 61.5,119.5 61.5,118.5C 63.1388,118.926 64.4721,118.926 65.5,118.5 Z"/></g>
<g><path style="opacity:1" fill="#edb288" d="M 73.5,83.5 C 73.1796,86.8984 73.513,90.2317 74.5,93.5C 76.1151,92.846 77.7818,92.346 79.5,92C 78.1118,91.1107 78.2785,90.6107 80,90.5C 80.7648,90.5699 81.2648,90.9033 81.5,91.5C 78.6895,93.974 76.6895,96.974 75.5,100.5C 77.4554,101.447 77.7887,102.781 76.5,104.5C 78.8541,106.246 79.8541,108.579 79.5,111.5C 86.3324,112.417 92.9991,112.417 99.5,111.5C 102.187,111.664 104.854,111.497 107.5,111C 108.684,109.855 108.684,108.688 107.5,107.5C 109.401,107.433 111.234,107.767 113,108.5C 113.945,108.095 114.612,107.428 115,106.5C 115.667,102.5 115.667,98.5 115,94.5C 113.89,92.9632 112.39,92.2965 110.5,92.5C 110.443,91.391 110.11,90.391 109.5,89.5C 109.917,88.8761 110.584,88.5427 111.5,88.5C 114.271,89.7945 117.104,90.7945 120,91.5C 122.492,91.1679 124.658,90.1679 126.5,88.5C 127.107,88.6236 127.44,88.9569 127.5,89.5C 127.334,94.8437 127.501,100.177 128,105.5C 128.498,107.544 129.665,108.878 131.5,109.5C 130.791,110.404 129.791,110.737 128.5,110.5C 128.719,111.675 128.386,112.675 127.5,113.5C 127.006,109.616 126.006,105.949 124.5,102.5C 122.013,102.218 119.347,102.218 116.5,102.5C 117.284,107.463 115.284,110.297 110.5,111C 109.939,112.676 108.939,114.009 107.5,115C 104.123,115.452 100.789,116.118 97.5,117C 98.8333,117.667 98.8333,118.333 97.5,119C 91.0145,118.378 84.6812,117.378 78.5,116C 79.8941,116.956 80.5607,118.289 80.5,120C 78.6656,122.339 77.6656,125.005 77.5,128C 79.5809,134.576 80.9142,141.076 81.5,147.5C 85.5817,147.656 89.5817,147.156 93.5,146C 97.2985,142.374 101.298,139.041 105.5,136C 106.5,134.333 107.5,132.667 108.5,131C 109.448,130.517 110.448,130.351 111.5,130.5C 111.351,131.552 111.517,132.552 112,133.5C 113.073,132.72 114.24,132.887 115.5,134C 123.718,134.752 131.718,134.252 139.5,132.5C 140.782,133.708 140.782,135.042 139.5,136.5C 138.389,135.389 137.055,134.722 135.5,134.5C 127.587,136.054 119.587,136.888 111.5,137C 109.594,138.993 108.427,138.493 108,135.5C 106.896,141.649 109.396,144.982 115.5,145.5C 109.375,147.398 103.709,150.065 98.5,153.5C 96.4924,154.616 95.4924,156.449 95.5,159C 95.4322,161.034 96.2655,162.534 98,163.5C 100.339,161.331 102.839,159.331 105.5,157.5C 115.038,150.451 125.705,148.118 137.5,150.5C 139.214,151.738 141.214,152.405 143.5,152.5C 145.118,153.451 146.451,154.784 147.5,156.5C 147.043,157.298 146.376,157.631 145.5,157.5C 145.167,157.5 144.833,157.5 144.5,157.5C 143.013,156.196 141.346,155.03 139.5,154C 131.503,153.933 123.503,154.266 115.5,155C 112.244,156.116 109.578,157.949 107.5,160.5C 103.194,161.066 102.861,161.732 106.5,162.5C 106.5,162.833 106.5,163.167 106.5,163.5C 103.713,163.78 101.547,165.113 100,167.5C 98.4934,163.764 97.6601,163.764 97.5,167.5C 96.5,167.5 95.5,167.5 94.5,167.5C 94.5,168.5 94.5,169.5 94.5,170.5C 96.604,170.201 98.604,170.534 100.5,171.5C 100.069,172.293 99.7355,173.127 99.5,174C 101.09,177.013 102.257,180.18 103,183.5C 106.814,183.671 109.648,185.337 111.5,188.5C 110.71,189.401 109.71,190.068 108.5,190.5C 105.68,190.752 103.014,190.252 100.5,189C 96.442,186.642 92.7754,183.808 89.5,180.5C 88.2719,179.694 87.2719,178.694 86.5,177.5C 84.6753,175.197 82.8419,172.864 81,170.5C 79.3693,166.249 77.5359,162.249 75.5,158.5C 75.5,157.833 75.5,157.167 75.5,156.5C 73.7353,149.408 72.0687,142.408 70.5,135.5C 70.825,127.981 70.4916,120.648 69.5,113.5C 69.2803,106.457 69.6136,99.4567 70.5,92.5C 71.184,89.4083 72.184,86.4083 73.5,83.5 Z"/></g>
<g><path style="opacity:1" fill="#ab5733" d="M 105.5,157.5 C 102.839,159.331 100.339,161.331 98,163.5C 96.2655,162.534 95.4322,161.034 95.5,159C 95.4924,156.449 96.4924,154.616 98.5,153.5C 101.83,152.334 105.163,152.334 108.5,153.5C 107.476,154.852 106.476,156.185 105.5,157.5 Z"/></g>
<g><path style="opacity:1" fill="#be7d56" d="M 70.5,135.5 C 72.0687,142.408 73.7353,149.408 75.5,156.5C 74.8333,156.5 74.1667,156.5 73.5,156.5C 73.5793,153.729 73.0793,151.063 72,148.5C 71.3333,149.833 70.6667,149.833 70,148.5C 69.1667,146.833 68.3333,145.167 67.5,143.5C 68.3554,142.707 69.1887,143.04 70,144.5C 71.1634,141.029 70.3301,138.362 67.5,136.5C 68.791,136.737 69.791,136.404 70.5,135.5 Z"/></g>
<g><path style="opacity:1" fill="#d5875a" d="M 134.5,143.5 C 131.721,143.279 129.054,143.612 126.5,144.5C 122.731,144.244 119.064,144.577 115.5,145.5C 109.396,144.982 106.896,141.649 108,135.5C 108.427,138.493 109.594,138.993 111.5,137C 119.587,136.888 127.587,136.054 135.5,134.5C 137.055,134.722 138.389,135.389 139.5,136.5C 140.782,135.042 140.782,133.708 139.5,132.5C 139.369,131.761 139.536,131.094 140,130.5C 144.524,138.595 142.024,142.429 132.5,142C 133.416,142.278 134.082,142.778 134.5,143.5 Z"/></g>
<g><path style="opacity:1" fill="#884229" d="M 113.5,138.5 C 115.5,138.5 117.5,138.5 119.5,138.5C 119.5,139.5 119.5,140.5 119.5,141.5C 117.801,141.66 116.134,141.494 114.5,141C 113.748,140.329 113.414,139.496 113.5,138.5 Z"/></g>
<g><path style="opacity:1" fill="#5a3d45" d="M 180.5,121.5 C 181.485,125.634 181.818,129.968 181.5,134.5C 180.869,138.804 180.369,143.137 180,147.5C 179.184,148.823 178.017,149.489 176.5,149.5C 176.5,149.167 176.5,148.833 176.5,148.5C 177.117,148.389 177.617,148.056 178,147.5C 178.177,143.644 178.677,139.977 179.5,136.5C 180.487,131.695 180.821,126.695 180.5,121.5 Z"/></g>
<g><path style="opacity:1" fill="#eeb387" d="M 154.5,105.5 C 154.5,105.833 154.5,106.167 154.5,106.5C 159.051,107.489 163.551,107.489 168,106.5C 168.333,108.833 168.667,111.167 169,113.5C 169.383,114.056 169.883,114.389 170.5,114.5C 170.629,116.216 170.962,117.883 171.5,119.5C 171.5,126.833 171.5,134.167 171.5,141.5C 171.167,146.167 170.833,150.833 170.5,155.5C 170.5,155.833 170.5,156.167 170.5,156.5C 168.792,159.95 167.459,163.617 166.5,167.5C 165.326,168.514 164.66,169.847 164.5,171.5C 162.408,174.681 160.075,177.681 157.5,180.5C 155.204,178.15 155.204,175.65 157.5,173C 155.833,172.667 154.167,172.333 152.5,172C 152.833,171.667 153.167,171.333 153.5,171C 152.5,170.167 151.5,169.333 150.5,168.5C 154.107,167.511 157.774,167.177 161.5,167.5C 162.78,162.636 162.447,157.969 160.5,153.5C 159.449,154.885 158.116,155.885 156.5,156.5C 155.791,153.871 154.791,151.371 153.5,149C 154.669,145.689 153.336,144.189 149.5,144.5C 149.649,143.448 149.483,142.448 149,141.5C 146.002,140.716 145.169,139.049 146.5,136.5C 151.06,139.531 155.893,141.864 161,143.5C 161.583,141.998 162.416,140.665 163.5,139.5C 163.88,134.437 164.88,129.27 166.5,124C 165.23,122.225 163.564,121.058 161.5,120.5C 161.558,118.719 161.225,116.719 160.5,114.5C 153.347,114.585 146.014,114.585 138.5,114.5C 138.5,113.5 138.5,112.5 138.5,111.5C 140.527,111.662 142.527,111.495 144.5,111C 145.252,110.329 145.586,109.496 145.5,108.5C 147.698,108.88 149.365,108.213 150.5,106.5C 151.158,105.602 151.824,104.602 152.5,103.5C 153.522,103.855 154.189,104.522 154.5,105.5 Z"/></g>
<g><path style="opacity:1" fill="#56291b" d="M 69.5,113.5 C 70.4916,120.648 70.825,127.981 70.5,135.5C 69.791,136.404 68.791,136.737 67.5,136.5C 67.5,133.5 67.5,130.5 67.5,127.5C 68.3091,129.292 68.8091,131.292 69,133.5C 69.4996,126.842 69.6663,120.175 69.5,113.5 Z"/></g>
<g><path style="opacity:1" fill="#74698a" d="M 60.5,116.5 C 60.1795,121.695 60.5128,126.695 61.5,131.5C 61.9628,134.33 62.6295,136.997 63.5,139.5C 65.3604,144.415 67.0271,149.415 68.5,154.5C 66.8522,152.44 65.3522,150.107 64,147.5C 62.8289,148.893 61.3289,149.727 59.5,150C 56.7352,151.097 55.0686,153.097 54.5,156C 51.6115,157.092 48.9448,158.592 46.5,160.5C 43.0097,165.383 39.3431,170.049 35.5,174.5C 31.8604,166.915 29.1937,158.915 27.5,150.5C 29.0568,151.466 30.3901,152.8 31.5,154.5C 30.3554,155.891 30.3554,157.224 31.5,158.5C 33.1093,156.06 35.4426,154.893 38.5,155C 38.3349,153.883 38.0016,152.716 37.5,151.5C 39.5,150.833 41.5,150.167 43.5,149.5C 44.0522,147.997 44.0522,146.331 43.5,144.5C 45.5,144.5 47.5,144.5 49.5,144.5C 49.5,142.833 49.5,141.167 49.5,139.5C 51.1992,139.66 52.8659,139.494 54.5,139C 54.9884,136.824 55.9884,134.991 57.5,133.5C 57.8632,127.441 58.8632,121.774 60.5,116.5 Z"/></g>
<g><path style="opacity:1" fill="#c5896e" d="M 61.5,121.5 C 62.4916,121.328 63.1583,121.662 63.5,122.5C 62.8761,122.917 62.5427,123.584 62.5,124.5C 62.7472,125.713 63.4138,126.38 64.5,126.5C 63.6274,130.768 63.2941,135.102 63.5,139.5C 62.6295,136.997 61.9628,134.33 61.5,131.5C 61.5,128.167 61.5,124.833 61.5,121.5 Z"/></g>
<g><path style="opacity:1" fill="#c5a198" d="M 60.5,116.5 C 61.8333,116.5 63.1667,116.5 64.5,116.5C 64.8333,117.167 65.1667,117.833 65.5,118.5C 64.4721,118.926 63.1388,118.926 61.5,118.5C 61.5,119.5 61.5,120.5 61.5,121.5C 61.5,124.833 61.5,128.167 61.5,131.5C 60.5128,126.695 60.1795,121.695 60.5,116.5 Z"/></g>
<g><path style="opacity:1" fill="#a18fa3" d="M 222.5,111.5 C 224.022,116.748 224.689,122.248 224.5,128C 224.499,132.015 224.165,135.849 223.5,139.5C 223.731,131.791 223.398,124.124 222.5,116.5C 222.5,114.833 222.5,113.167 222.5,111.5 Z"/></g>
<g><path style="opacity:1" fill="#d19269" d="M 174.5,109.5 C 175.5,109.5 176.5,109.5 177.5,109.5C 177.443,110.609 177.11,111.609 176.5,112.5C 175.853,113.274 175.52,114.274 175.5,115.5C 176.341,119.335 177.341,123.002 178.5,126.5C 179.414,129.728 179.747,133.061 179.5,136.5C 178.677,139.977 178.177,143.644 178,147.5C 177.617,148.056 177.117,148.389 176.5,148.5C 175.022,148.762 173.689,148.429 172.5,147.5C 173.325,146.614 174.325,146.281 175.5,146.5C 175.631,143.633 174.297,141.967 171.5,141.5C 171.5,134.167 171.5,126.833 171.5,119.5C 172.194,122.421 173.027,125.421 174,128.5C 173.868,122.86 173.701,117.193 173.5,111.5C 173.328,110.508 173.662,109.842 174.5,109.5 Z"/></g>
<g><path style="opacity:1" fill="#8e3b22" d="M 63.5,122.5 C 64.4345,123.568 64.7678,124.901 64.5,126.5C 63.4138,126.38 62.7472,125.713 62.5,124.5C 62.5427,123.584 62.8761,122.917 63.5,122.5 Z"/></g>
<g><path style="opacity:1" fill="#b1755d" d="M 177.5,109.5 C 179.416,113.163 180.416,117.163 180.5,121.5C 180.821,126.695 180.487,131.695 179.5,136.5C 179.747,133.061 179.414,129.728 178.5,126.5C 179.147,125.726 179.48,124.726 179.5,123.5C 178.659,119.665 177.659,115.998 176.5,112.5C 177.11,111.609 177.443,110.609 177.5,109.5 Z"/></g>
<g><path style="opacity:1" fill="#543324" d="M 173.5,111.5 C 173.701,117.193 173.868,122.86 174,128.5C 173.027,125.421 172.194,122.421 171.5,119.5C 170.962,117.883 170.629,116.216 170.5,114.5C 170.5,113.833 170.5,113.167 170.5,112.5C 171.117,112.611 171.617,112.944 172,113.5C 172.278,112.584 172.778,111.918 173.5,111.5 Z"/></g>
<g><path style="opacity:1" fill="#924526" d="M 176.5,112.5 C 177.659,115.998 178.659,119.665 179.5,123.5C 179.48,124.726 179.147,125.726 178.5,126.5C 177.341,123.002 176.341,119.335 175.5,115.5C 175.52,114.274 175.853,113.274 176.5,112.5 Z"/></g>
<g><path style="opacity:1" fill="#130b08" d="M 60.5,99.5 C 61.5285,102.852 63.8618,104.852 67.5,105.5C 68.1676,108.306 68.8343,110.972 69.5,113.5C 69.6663,120.175 69.4996,126.842 69,133.5C 68.8091,131.292 68.3091,129.292 67.5,127.5C 67.6641,124.813 67.4974,122.146 67,119.5C 66.6174,118.944 66.1174,118.611 65.5,118.5C 65.1667,117.833 64.8333,117.167 64.5,116.5C 64.4848,113.121 63.4848,110.121 61.5,107.5C 61.1667,104.833 60.8333,102.167 60.5,99.5 Z"/></g>
<g><path style="opacity:1" fill="#efbf9a" d="M 131.5,109.5 C 132.391,108.89 133.391,108.557 134.5,108.5C 135.167,107.833 135.833,107.167 136.5,106.5C 138.5,107.833 140.5,107.833 142.5,106.5C 142.833,106.5 143.167,106.5 143.5,106.5C 143.833,107.5 144.5,108.167 145.5,108.5C 145.586,109.496 145.252,110.329 144.5,111C 142.527,111.495 140.527,111.662 138.5,111.5C 138.5,112.5 138.5,113.5 138.5,114.5C 146.014,114.585 153.347,114.585 160.5,114.5C 161.225,116.719 161.558,118.719 161.5,120.5C 161.953,121.458 162.619,122.292 163.5,123C 162.833,123.333 162.167,123.667 161.5,124C 164.115,128.755 164.115,133.922 161.5,139.5C 159.579,140.641 157.579,140.808 155.5,140C 150.622,137.978 146.622,134.811 143.5,130.5C 141.929,129.691 140.262,129.357 138.5,129.5C 138.263,130.791 138.596,131.791 139.5,132.5C 131.718,134.252 123.718,134.752 115.5,134C 114.24,132.887 113.073,132.72 112,133.5C 111.517,132.552 111.351,131.552 111.5,130.5C 110.448,130.351 109.448,130.517 108.5,131C 107.5,132.667 106.5,134.333 105.5,136C 101.298,139.041 97.2985,142.374 93.5,146C 89.5817,147.156 85.5817,147.656 81.5,147.5C 80.9142,141.076 79.5809,134.576 77.5,128C 77.6656,125.005 78.6656,122.339 80.5,120C 80.5607,118.289 79.8941,116.956 78.5,116C 84.6812,117.378 91.0145,118.378 97.5,119C 98.8333,118.333 98.8333,117.667 97.5,117C 100.789,116.118 104.123,115.452 107.5,115C 108.939,114.009 109.939,112.676 110.5,111C 115.284,110.297 117.284,107.463 116.5,102.5C 119.347,102.218 122.013,102.218 124.5,102.5C 126.006,105.949 127.006,109.616 127.5,113.5C 128.386,112.675 128.719,111.675 128.5,110.5C 129.791,110.737 130.791,110.404 131.5,109.5 Z"/></g>
<g><path style="opacity:1" fill="#5e1e0d" d="M 130.5,137.5 C 132.199,137.34 133.866,137.506 135.5,138C 133.415,140.139 131.749,139.972 130.5,137.5 Z"/></g>
<g><path style="opacity:1" fill="#f1c2a6" d="M 98.5,119.5 C 100.688,120.652 100.688,122.152 98.5,124C 99.0219,124.561 99.3552,125.228 99.5,126C 97.4563,128.057 96.2897,130.557 96,133.5C 93.0134,134.276 92.1801,135.943 93.5,138.5C 89.3655,139.579 86.3655,138.079 84.5,134C 83.2068,133.51 81.8734,133.343 80.5,133.5C 80.9422,129.846 81.2756,126.179 81.5,122.5C 84.7086,122.589 87.8752,122.256 91,121.5C 92.8882,121.796 94.7216,122.296 96.5,123C 95.3463,123.914 95.513,124.747 97,125.5C 97.5046,123.482 98.0046,121.482 98.5,119.5 Z"/></g>
<g><path style="opacity:1" fill="#b08d6d" d="M 102.5,105.5 C 104.062,105.733 105.395,106.4 106.5,107.5C 106.833,107.5 107.167,107.5 107.5,107.5C 108.684,108.688 108.684,109.855 107.5,111C 104.854,111.497 102.187,111.664 99.5,111.5C 99.9887,110.005 100.655,108.671 101.5,107.5C 101.833,106.833 102.167,106.167 102.5,105.5 Z"/></g>
<g><path style="opacity:1" fill="#d9d1c0" d="M 91.5,110.5 C 89.8716,111.853 88.5383,111.519 87.5,109.5C 88.287,107.896 89.6203,107.229 91.5,107.5C 91.5,108.5 91.5,109.5 91.5,110.5 Z"/></g>
<g><path style="opacity:1" fill="#ded8c6" d="M 101.5,107.5 C 103.346,107.222 104.68,107.889 105.5,109.5C 104.311,110.429 102.978,110.762 101.5,110.5C 101.5,109.5 101.5,108.5 101.5,107.5 Z"/></g>
<g><path style="opacity:1" fill="#472d1c" d="M 89.5,105.5 C 92.0828,106.539 94.5828,107.872 97,109.5C 98.0319,107.973 99.1986,106.64 100.5,105.5C 101.167,105.5 101.833,105.5 102.5,105.5C 102.167,106.167 101.833,106.833 101.5,107.5C 100.655,108.671 99.9887,110.005 99.5,111.5C 96.7212,111.721 94.0545,111.388 91.5,110.5C 91.5,109.5 91.5,108.5 91.5,107.5C 89.6203,107.229 88.287,107.896 87.5,109.5C 86.609,110.11 85.609,110.443 84.5,110.5C 85.7847,108.548 87.4514,106.882 89.5,105.5 Z"/></g>
<g><path style="opacity:1" fill="#e69d6d" d="M 110.5,92.5 C 112.39,92.2965 113.89,92.9632 115,94.5C 115.667,98.5 115.667,102.5 115,106.5C 114.612,107.428 113.945,108.095 113,108.5C 111.234,107.767 109.401,107.433 107.5,107.5C 107.167,107.5 106.833,107.5 106.5,107.5C 108.279,105.656 110.612,104.99 113.5,105.5C 114.081,101.25 113.081,97.5837 110.5,94.5C 110.5,93.8333 110.5,93.1667 110.5,92.5 Z"/></g>
<g><path style="opacity:1" fill="#181008" d="M 100.5,105.5 C 99.1986,106.64 98.0319,107.973 97,109.5C 94.5828,107.872 92.0828,106.539 89.5,105.5C 93.1667,104.167 96.8333,104.167 100.5,105.5 Z"/></g>
<g><path style="opacity:1" fill="#6a4776" d="M 211.5,81.5 C 216.789,90.775 220.456,100.775 222.5,111.5C 222.5,113.167 222.5,114.833 222.5,116.5C 221.883,116.611 221.383,116.944 221,117.5C 220.187,115.564 219.687,113.564 219.5,111.5C 218.325,111.281 217.325,111.614 216.5,112.5C 217.246,113.736 217.579,115.07 217.5,116.5C 215.5,116.5 213.5,116.5 211.5,116.5C 211.5,118.5 211.5,120.5 211.5,122.5C 209.473,122.338 207.473,122.505 205.5,123C 203.772,125.582 201.439,127.082 198.5,127.5C 198.66,129.199 198.494,130.866 198,132.5C 197.329,133.252 196.496,133.586 195.5,133.5C 195.486,125.436 194.819,117.436 193.5,109.5C 194.028,108.279 194.695,107.113 195.5,106C 193.512,105.82 191.512,105.986 189.5,106.5C 189.503,99.4673 190.003,92.4673 191,85.5C 192.799,85.2795 194.632,84.9461 196.5,84.5C 197.429,83.3112 197.762,81.9778 197.5,80.5C 199.359,80.5391 200.692,79.7058 201.5,78C 200.446,76.6124 200.28,75.1124 201,73.5C 201.915,74.3279 202.581,75.3279 203,76.5C 203.605,74.5188 204.605,74.1854 206,75.5C 206.5,76.5 207,77.5 207.5,78.5C 204.894,81.3376 205.394,83.671 209,85.5C 209.492,84.451 209.326,83.451 208.5,82.5C 209.325,81.6143 210.325,81.281 211.5,81.5 Z"/></g>
<g><path style="opacity:1" fill="#674a35" d="M 167.5,98.5 C 168.924,100.515 169.59,102.848 169.5,105.5C 168.655,104.329 167.989,102.995 167.5,101.5C 167.5,100.5 167.5,99.5 167.5,98.5 Z"/></g>
<g><path style="opacity:1" fill="#dc8352" d="M 108.5,94.5 C 109.167,94.5 109.833,94.5 110.5,94.5C 113.081,97.5837 114.081,101.25 113.5,105.5C 110.612,104.99 108.279,105.656 106.5,107.5C 105.395,106.4 104.062,105.733 102.5,105.5C 102.443,104.391 102.11,103.391 101.5,102.5C 98.0732,97.0776 93.0732,95.0776 86.5,96.5C 93.8333,95.8333 101.167,95.1667 108.5,94.5 Z"/></g>
<g><path style="opacity:1" fill="#c27b52" d="M 101.5,102.5 C 102.11,103.391 102.443,104.391 102.5,105.5C 101.833,105.5 101.167,105.5 100.5,105.5C 96.8333,104.167 93.1667,104.167 89.5,105.5C 87.4514,106.882 85.7847,108.548 84.5,110.5C 82.6558,109.796 82.1558,108.463 83,106.5C 88.4434,101.799 94.6101,100.466 101.5,102.5 Z"/></g>
<g><path style="opacity:1" fill="#e29e72" d="M 86.5,96.5 C 93.0732,95.0776 98.0732,97.0776 101.5,102.5C 94.6101,100.466 88.4434,101.799 83,106.5C 82.1558,108.463 82.6558,109.796 84.5,110.5C 85.609,110.443 86.609,110.11 87.5,109.5C 88.5383,111.519 89.8716,111.853 91.5,110.5C 94.0545,111.388 96.7212,111.721 99.5,111.5C 92.9991,112.417 86.3324,112.417 79.5,111.5C 79.8541,108.579 78.8541,106.246 76.5,104.5C 77.7887,102.781 77.4554,101.447 75.5,100.5C 78.8454,98.4091 82.512,97.0758 86.5,96.5 Z"/></g>
<g><path style="opacity:1" fill="#e39f72" d="M 127.5,89.5 C 127.833,89.5 128.167,89.5 128.5,89.5C 128.5,90.5 128.5,91.5 128.5,92.5C 128.335,95.8499 128.502,99.1832 129,102.5C 130.67,104.698 132.67,105.032 135,103.5C 135.287,101.109 135.787,98.7759 136.5,96.5C 140.838,94.0398 145.505,93.0398 150.5,93.5C 154.578,94.2482 158.578,95.2482 162.5,96.5C 162.371,94.7839 162.038,93.1172 161.5,91.5C 162.728,92.3065 163.728,93.3065 164.5,94.5C 165.131,96.9752 166.131,99.3085 167.5,101.5C 167.989,102.995 168.655,104.329 169.5,105.5C 169.448,107.903 169.781,110.236 170.5,112.5C 170.5,113.167 170.5,113.833 170.5,114.5C 169.883,114.389 169.383,114.056 169,113.5C 168.667,111.167 168.333,108.833 168,106.5C 163.551,107.489 159.051,107.489 154.5,106.5C 155.833,106.5 157.167,106.5 158.5,106.5C 157.69,100.641 154.19,97.6412 148,97.5C 145.11,98.13 142.276,98.9633 139.5,100C 137.859,101.129 136.859,102.629 136.5,104.5C 134.896,105.287 134.229,106.62 134.5,108.5C 133.391,108.557 132.391,108.89 131.5,109.5C 129.665,108.878 128.498,107.544 128,105.5C 127.501,100.177 127.334,94.8437 127.5,89.5 Z"/></g>
<g><path style="opacity:1" fill="#5a3b23" d="M 150.5,106.5 C 149.365,108.213 147.698,108.88 145.5,108.5C 144.5,108.167 143.833,107.5 143.5,106.5C 145.492,106.672 147.158,106.005 148.5,104.5C 149.182,105.243 149.849,105.909 150.5,106.5 Z"/></g>
<g><path style="opacity:1" fill="#ebeae1" d="M 142.5,106.5 C 140.5,107.833 138.5,107.833 136.5,106.5C 138.61,103.998 140.61,103.998 142.5,106.5 Z"/></g>
<g><path style="opacity:1" fill="#7d6351" d="M 139.5,103.5 C 140.5,103.5 141.5,103.5 142.5,103.5C 142.5,104.5 142.5,105.5 142.5,106.5C 140.61,103.998 138.61,103.998 136.5,106.5C 135.833,107.167 135.167,107.833 134.5,108.5C 134.229,106.62 134.896,105.287 136.5,104.5C 137.391,103.89 138.391,103.557 139.5,103.5 Z"/></g>
<g><path style="opacity:1" fill="#2d1e16" d="M 154.5,105.5 C 154.189,104.522 153.522,103.855 152.5,103.5C 151.824,104.602 151.158,105.602 150.5,106.5C 149.849,105.909 149.182,105.243 148.5,104.5C 147.158,106.005 145.492,106.672 143.5,106.5C 143.167,106.5 142.833,106.5 142.5,106.5C 142.5,105.5 142.5,104.5 142.5,103.5C 141.5,103.5 140.5,103.5 139.5,103.5C 145.79,99.1992 151.79,99.6992 157.5,105C 156.552,105.483 155.552,105.649 154.5,105.5 Z"/></g>
<g><path style="opacity:1" fill="#b36e4e" d="M 154.5,106.5 C 154.5,106.167 154.5,105.833 154.5,105.5C 155.552,105.649 156.552,105.483 157.5,105C 151.79,99.6992 145.79,99.1992 139.5,103.5C 138.391,103.557 137.391,103.89 136.5,104.5C 136.859,102.629 137.859,101.129 139.5,100C 142.276,98.9633 145.11,98.13 148,97.5C 154.19,97.6412 157.69,100.641 158.5,106.5C 157.167,106.5 155.833,106.5 154.5,106.5 Z"/></g>
<g><path style="opacity:1" fill="#d68655" d="M 128.5,92.5 C 132.167,92.5 135.833,92.5 139.5,92.5C 143.371,92.185 147.038,92.5184 150.5,93.5C 145.505,93.0398 140.838,94.0398 136.5,96.5C 135.787,98.7759 135.287,101.109 135,103.5C 132.67,105.032 130.67,104.698 129,102.5C 128.502,99.1832 128.335,95.8499 128.5,92.5 Z"/></g>
<g><path style="opacity:1" fill="#603016" d="M 96.5,88.5 C 100.898,88.2941 105.232,88.6274 109.5,89.5C 110.11,90.391 110.443,91.391 110.5,92.5C 110.5,93.1667 110.5,93.8333 110.5,94.5C 109.833,94.5 109.167,94.5 108.5,94.5C 101.167,95.1667 93.8333,95.8333 86.5,96.5C 82.512,97.0758 78.8454,98.4091 75.5,100.5C 76.6895,96.974 78.6895,93.974 81.5,91.5C 86.4749,90.0102 91.4749,89.0102 96.5,88.5 Z"/></g>
<g><path style="opacity:1" fill="#b88668" d="M 162.5,81.5 C 165.544,86.6616 167.211,92.3282 167.5,98.5C 167.5,99.5 167.5,100.5 167.5,101.5C 166.131,99.3085 165.131,96.9752 164.5,94.5C 164.252,90.0938 163.585,85.7604 162.5,81.5 Z"/></g>
<g><path style="opacity:1" fill="#5b2b12" d="M 158.5,89.5 C 159.5,90.1667 160.5,90.8333 161.5,91.5C 162.038,93.1172 162.371,94.7839 162.5,96.5C 158.578,95.2482 154.578,94.2482 150.5,93.5C 147.038,92.5184 143.371,92.185 139.5,92.5C 139.5,92.1667 139.5,91.8333 139.5,91.5C 145.463,91.1493 151.296,91.8159 157,93.5C 157.833,93.1667 158.667,92.8333 159.5,92.5C 158.873,91.5832 158.539,90.5832 158.5,89.5 Z"/></g>
<g><path style="opacity:1" fill="#746f95" d="M 57.5,83.5 C 57.9714,90.8432 58.6381,98.1765 59.5,105.5C 60.1818,106.243 60.8485,106.909 61.5,107.5C 63.4848,110.121 64.4848,113.121 64.5,116.5C 63.1667,116.5 61.8333,116.5 60.5,116.5C 58.8632,121.774 57.8632,127.441 57.5,133.5C 55.9884,134.991 54.9884,136.824 54.5,139C 52.8659,139.494 51.1992,139.66 49.5,139.5C 49.5,141.167 49.5,142.833 49.5,144.5C 47.5,144.5 45.5,144.5 43.5,144.5C 44.0522,146.331 44.0522,147.997 43.5,149.5C 41.5,150.167 39.5,150.833 37.5,151.5C 38.0016,152.716 38.3349,153.883 38.5,155C 35.4426,154.893 33.1093,156.06 31.5,158.5C 30.3554,157.224 30.3554,155.891 31.5,154.5C 30.3901,152.8 29.0568,151.466 27.5,150.5C 26.0187,145.988 25.352,141.322 25.5,136.5C 25.1304,127.333 26.1304,118.333 28.5,109.5C 31.4867,109.578 32.1534,108.411 30.5,106C 32.5437,103.943 33.7103,101.443 34,98.5C 35.488,99.1958 36.988,98.8625 38.5,97.5C 38.0233,96.5224 37.3567,95.6891 36.5,95C 39.095,94.7744 41.595,94.2744 44,93.5C 44.4935,91.8659 44.6602,90.1992 44.5,88.5C 45.9778,88.762 47.3112,88.4287 48.5,87.5C 49.0016,86.2836 49.3349,85.1169 49.5,84C 51.5268,82.1207 53.8602,80.954 56.5,80.5C 56.2627,81.791 56.596,82.791 57.5,83.5 Z"/></g>
<g><path style="opacity:1" fill="#361a04" d="M 108.5,94.5 C 102.132,94.8297 95.7985,94.4963 89.5,93.5C 90.09,92.2011 91.09,91.3678 92.5,91C 97.8229,90.5006 103.156,90.334 108.5,90.5C 108.5,91.8333 108.5,93.1667 108.5,94.5 Z"/></g>
<g><path style="opacity:1" fill="#403349" d="M 183.5,64.5 C 184.167,65.5 184.833,66.5 185.5,67.5C 188.15,81.0043 189.15,94.671 188.5,108.5C 189.791,108.263 190.791,108.596 191.5,109.5C 191.82,112.898 191.487,116.232 190.5,119.5C 189.738,118.372 189.071,117.205 188.5,116C 186.075,115.707 184.242,114.541 183,112.5C 182.578,114.355 182.078,116.189 181.5,118C 182.786,123.642 182.786,129.142 181.5,134.5C 181.818,129.968 181.485,125.634 180.5,121.5C 180.416,117.163 179.416,113.163 177.5,109.5C 176.5,109.5 175.5,109.5 174.5,109.5C 175.462,102.588 175.795,95.5878 175.5,88.5C 175.38,84.9582 175.714,81.4582 176.5,78C 176.245,76.6739 175.578,75.6739 174.5,75C 177.109,72.1663 180.442,70.8329 184.5,71C 183.577,68.9592 183.244,66.7925 183.5,64.5 Z"/></g>
<g><path style="opacity:1" fill="#3c1d07" d="M 130.5,87.5 C 130.842,86.6618 131.508,86.3284 132.5,86.5C 140.174,86.3336 147.841,86.5003 155.5,87C 156.942,87.3768 157.942,88.2101 158.5,89.5C 158.539,90.5832 158.873,91.5832 159.5,92.5C 158.667,92.8333 157.833,93.1667 157,93.5C 151.296,91.8159 145.463,91.1493 139.5,91.5C 141.631,90.6862 143.964,90.1862 146.5,90C 147.833,89.3333 147.833,88.6667 146.5,88C 141.177,87.5006 135.844,87.334 130.5,87.5 Z"/></g>
<g><path style="opacity:1" fill="#2b1306" d="M 130.5,87.5 C 135.844,87.334 141.177,87.5006 146.5,88C 147.833,88.6667 147.833,89.3333 146.5,90C 143.964,90.1862 141.631,90.6862 139.5,91.5C 139.5,91.8333 139.5,92.1667 139.5,92.5C 135.833,92.5 132.167,92.5 128.5,92.5C 128.5,91.5 128.5,90.5 128.5,89.5C 128.833,88.5 129.5,87.8333 130.5,87.5 Z"/></g>
<g><path style="opacity:1" fill="#787d9d" d="M 58.5,55.5 C 58.0051,57.4523 57.6718,59.4523 57.5,61.5C 58.6959,64.7874 59.6959,68.1207 60.5,71.5C 59.0222,71.238 57.6888,71.5713 56.5,72.5C 55.9756,74.4531 54.9756,76.1198 53.5,77.5C 54.8875,77.8072 56.5542,77.8072 58.5,77.5C 58.1667,79.5 57.8333,81.5 57.5,83.5C 56.596,82.791 56.2627,81.791 56.5,80.5C 53.8602,80.954 51.5268,82.1207 49.5,84C 49.3349,85.1169 49.0016,86.2836 48.5,87.5C 47.3112,88.4287 45.9778,88.762 44.5,88.5C 44.6602,90.1992 44.4935,91.8659 44,93.5C 41.595,94.2744 39.095,94.7744 36.5,95C 37.3567,95.6891 38.0233,96.5224 38.5,97.5C 36.988,98.8625 35.488,99.1958 34,98.5C 33.7103,101.443 32.5437,103.943 30.5,106C 32.1534,108.411 31.4867,109.578 28.5,109.5C 26.1304,118.333 25.1304,127.333 25.5,136.5C 24.8356,133.854 24.5022,131.021 24.5,128C 25.5013,98.8376 36.8346,74.671 58.5,55.5 Z"/></g>
<g><path style="opacity:1" fill="#513219" d="M 74.5,74.5 C 74.1667,77.1667 73.8333,79.8333 73.5,82.5C 73.5,82.8333 73.5,83.1667 73.5,83.5C 72.184,86.4083 71.184,89.4083 70.5,92.5C 70.4054,87.113 70.9054,81.7797 72,76.5C 72.7083,75.6195 73.5416,74.9528 74.5,74.5 Z"/></g>
<g><path style="opacity:1" fill="#2a1a0b" d="M 78.5,65.5 C 76.9091,68.3516 75.5758,71.3516 74.5,74.5C 73.5416,74.9528 72.7083,75.6195 72,76.5C 70.9054,81.7797 70.4054,87.113 70.5,92.5C 69.6136,99.4567 69.2803,106.457 69.5,113.5C 68.8343,110.972 68.1676,108.306 67.5,105.5C 63.8618,104.852 61.5285,102.852 60.5,99.5C 59.3448,92.3451 59.1782,85.0118 60,77.5C 61.1932,75.1136 62.3599,72.7802 63.5,70.5C 65.5405,71.5192 67.5405,71.5192 69.5,70.5C 66.992,69.2633 64.992,67.43 63.5,65C 66.146,64.5026 68.8127,64.3359 71.5,64.5C 71.5,65.5 71.5,66.5 71.5,67.5C 74.188,67.8342 76.5214,67.1675 78.5,65.5 Z"/></g>
<g><path style="opacity:1" fill="#593e30" d="M 158.5,70.5 C 160.245,72.0326 161.245,74.0326 161.5,76.5C 159.755,74.9674 158.755,72.9674 158.5,70.5 Z"/></g>
<g><path style="opacity:1" fill="#6a6d84" d="M 62.5,51.5 C 59.7642,57.9634 60.0975,64.2968 63.5,70.5C 62.3599,72.7802 61.1932,75.1136 60,77.5C 59.1782,85.0118 59.3448,92.3451 60.5,99.5C 60.8333,102.167 61.1667,104.833 61.5,107.5C 60.8485,106.909 60.1818,106.243 59.5,105.5C 58.6381,98.1765 57.9714,90.8432 57.5,83.5C 57.8333,81.5 58.1667,79.5 58.5,77.5C 56.5542,77.8072 54.8875,77.8072 53.5,77.5C 54.9756,76.1198 55.9756,74.4531 56.5,72.5C 57.6888,71.5713 59.0222,71.238 60.5,71.5C 59.6959,68.1207 58.6959,64.7874 57.5,61.5C 57.6718,59.4523 58.0051,57.4523 58.5,55.5C 59.5,53.8333 60.8333,52.5 62.5,51.5 Z"/></g>
<g><path style="opacity:1" fill="#6d537e" d="M 193.5,58.5 C 201.02,65.0148 207.02,72.6815 211.5,81.5C 210.325,81.281 209.325,81.6143 208.5,82.5C 209.326,83.451 209.492,84.451 209,85.5C 205.394,83.671 204.894,81.3376 207.5,78.5C 207,77.5 206.5,76.5 206,75.5C 204.605,74.1854 203.605,74.5188 203,76.5C 202.581,75.3279 201.915,74.3279 201,73.5C 200.28,75.1124 200.446,76.6124 201.5,78C 200.692,79.7058 199.359,80.5391 197.5,80.5C 197.762,81.9778 197.429,83.3112 196.5,84.5C 194.632,84.9461 192.799,85.2795 191,85.5C 190.003,92.4673 189.503,99.4673 189.5,106.5C 191.512,105.986 193.512,105.82 195.5,106C 194.695,107.113 194.028,108.279 193.5,109.5C 192.833,109.5 192.167,109.5 191.5,109.5C 190.791,108.596 189.791,108.263 188.5,108.5C 189.15,94.671 188.15,81.0043 185.5,67.5C 185.269,64.3546 184.769,61.3546 184,58.5C 184.804,57.1955 185.971,56.5288 187.5,56.5C 189.516,57.1776 191.516,57.8443 193.5,58.5 Z"/></g>
<g><path style="opacity:1" fill="#f0bf9d" d="M 139.5,85.5 C 136.941,85.1984 134.607,85.5318 132.5,86.5C 131.508,86.3284 130.842,86.6618 130.5,87.5C 129.5,87.8333 128.833,88.5 128.5,89.5C 128.167,89.5 127.833,89.5 127.5,89.5C 127.44,88.9569 127.107,88.6236 126.5,88.5C 124.658,90.1679 122.492,91.1679 120,91.5C 117.104,90.7945 114.271,89.7945 111.5,88.5C 110.584,88.5427 109.917,88.8761 109.5,89.5C 105.232,88.6274 100.898,88.2941 96.5,88.5C 93.8333,88.5 91.1667,88.5 88.5,88.5C 88.9167,85.9208 88.25,83.7542 86.5,82C 88.1841,77.426 89.1841,72.5927 89.5,67.5C 89.2907,66.914 88.9574,66.414 88.5,66C 93.6876,63.3439 99.021,60.8439 104.5,58.5C 105.468,59.4891 106.635,60.1557 108,60.5C 111.172,59.2526 114.339,59.2526 117.5,60.5C 117.491,62.3084 117.991,63.9751 119,65.5C 120.544,62.7364 121.711,62.9031 122.5,66C 121.22,68.1317 121.22,70.2984 122.5,72.5C 125.066,73.279 127.066,74.779 128.5,77C 132.609,77.1452 136.109,78.6452 139,81.5C 140.183,80.269 141.349,80.269 142.5,81.5C 141.675,82.3857 140.675,82.719 139.5,82.5C 139.5,83.5 139.5,84.5 139.5,85.5 Z"/></g>
<g><path style="opacity:1" fill="#e6aa7e" d="M 137.5,53.5 C 147.205,55.8759 154.205,61.5425 158.5,70.5C 158.755,72.9674 159.755,74.9674 161.5,76.5C 162.301,78.0418 162.634,79.7085 162.5,81.5C 163.585,85.7604 164.252,90.0938 164.5,94.5C 163.728,93.3065 162.728,92.3065 161.5,91.5C 160.5,90.8333 159.5,90.1667 158.5,89.5C 157.942,88.2101 156.942,87.3768 155.5,87C 147.841,86.5003 140.174,86.3336 132.5,86.5C 134.607,85.5318 136.941,85.1984 139.5,85.5C 144.844,85.666 150.177,85.4994 155.5,85C 154.692,84.6924 154.025,84.1924 153.5,83.5C 154.489,82.5318 155.156,81.3651 155.5,80C 153.549,76.6514 151.882,73.1514 150.5,69.5C 149.808,70.0253 149.308,70.6919 149,71.5C 147.926,70.3816 146.76,69.3816 145.5,68.5C 145.36,64.6183 143.36,61.6183 139.5,59.5C 137.833,60.1667 136.167,60.8333 134.5,61.5C 133.5,60.1667 132.5,58.8333 131.5,57.5C 130.325,58.8549 129.325,58.6883 128.5,57C 129.5,56.6667 130.5,56.3333 131.5,56C 131.167,55.6667 130.833,55.3333 130.5,55C 126.62,54.0578 122.787,52.8911 119,51.5C 117.635,51.8443 116.468,52.5109 115.5,53.5C 112.795,52.8708 110.128,52.5374 107.5,52.5C 105.453,54.0152 103.119,54.8485 100.5,55C 99.8333,56 99.1667,57 98.5,58C 90.6356,60.154 83.8023,63.9873 78,69.5C 77.8922,73.1765 77.8922,76.8432 78,80.5C 77,83.1667 76,83.1667 75,80.5C 74.7216,81.4158 74.2216,82.0825 73.5,82.5C 73.8333,79.8333 74.1667,77.1667 74.5,74.5C 75.5758,71.3516 76.9091,68.3516 78.5,65.5C 83.6824,58.8926 90.349,54.2259 98.5,51.5C 111.714,49.8456 124.714,50.5123 137.5,53.5 Z"/></g>
<g><path style="opacity:1" fill="#efb78d" d="M 139.5,85.5 C 139.5,84.5 139.5,83.5 139.5,82.5C 140.675,82.719 141.675,82.3857 142.5,81.5C 141.349,80.269 140.183,80.269 139,81.5C 136.109,78.6452 132.609,77.1452 128.5,77C 127.066,74.779 125.066,73.279 122.5,72.5C 121.22,70.2984 121.22,68.1317 122.5,66C 121.711,62.9031 120.544,62.7364 119,65.5C 117.991,63.9751 117.491,62.3084 117.5,60.5C 114.339,59.2526 111.172,59.2526 108,60.5C 106.635,60.1557 105.468,59.4891 104.5,58.5C 99.021,60.8439 93.6876,63.3439 88.5,66C 88.9574,66.414 89.2907,66.914 89.5,67.5C 89.1841,72.5927 88.1841,77.426 86.5,82C 88.25,83.7542 88.9167,85.9208 88.5,88.5C 91.1667,88.5 93.8333,88.5 96.5,88.5C 91.4749,89.0102 86.4749,90.0102 81.5,91.5C 81.2648,90.9033 80.7648,90.5699 80,90.5C 78.2785,90.6107 78.1118,91.1107 79.5,92C 77.7818,92.346 76.1151,92.846 74.5,93.5C 73.513,90.2317 73.1796,86.8984 73.5,83.5C 73.5,83.1667 73.5,82.8333 73.5,82.5C 74.2216,82.0825 74.7216,81.4158 75,80.5C 76,83.1667 77,83.1667 78,80.5C 77.8922,76.8432 77.8922,73.1765 78,69.5C 83.8023,63.9873 90.6356,60.154 98.5,58C 99.1667,57 99.8333,56 100.5,55C 103.119,54.8485 105.453,54.0152 107.5,52.5C 110.128,52.5374 112.795,52.8708 115.5,53.5C 116.468,52.5109 117.635,51.8443 119,51.5C 122.787,52.8911 126.62,54.0578 130.5,55C 130.833,55.3333 131.167,55.6667 131.5,56C 130.5,56.3333 129.5,56.6667 128.5,57C 129.325,58.6883 130.325,58.8549 131.5,57.5C 132.5,58.8333 133.5,60.1667 134.5,61.5C 136.167,60.8333 137.833,60.1667 139.5,59.5C 143.36,61.6183 145.36,64.6183 145.5,68.5C 146.76,69.3816 147.926,70.3816 149,71.5C 149.308,70.6919 149.808,70.0253 150.5,69.5C 151.882,73.1514 153.549,76.6514 155.5,80C 155.156,81.3651 154.489,82.5318 153.5,83.5C 154.025,84.1924 154.692,84.6924 155.5,85C 150.177,85.4994 144.844,85.666 139.5,85.5 Z"/></g>
<g><path style="opacity:1" fill="#6d5d81" d="M 174.5,43.5 C 181.72,47.3877 188.053,52.3877 193.5,58.5C 191.516,57.8443 189.516,57.1776 187.5,56.5C 185.971,56.5288 184.804,57.1955 184,58.5C 184.769,61.3546 185.269,64.3546 185.5,67.5C 184.833,66.5 184.167,65.5 183.5,64.5C 180.237,57.6377 177.237,50.6377 174.5,43.5 Z"/></g>
<g><path style="opacity:1" fill="#c9916c" d="M 137.5,53.5 C 124.714,50.5123 111.714,49.8456 98.5,51.5C 100.242,50.0427 102.242,48.876 104.5,48C 106.167,47.8333 107.833,47.6667 109.5,47.5C 115.773,48.7276 122.106,49.5609 128.5,50C 131.65,51.0356 134.65,52.2023 137.5,53.5 Z"/></g>
</svg>
